<svg width="60" height="65" viewBox="0 0 60 65" fill="none" xmlns="http://www.w3.org/2000/svg">
<path d="M21.6821 10.8745C22.0421 11.3047 22.5695 11.5514 23.1291 11.5514C23.5696 11.5514 23.9979 11.3962 24.3347 11.1147C25.1326 10.4501 25.2414 9.25938 24.5768 8.46018L22.5096 5.98015C21.8695 5.21186 20.6266 5.09723 19.8563 5.7393C19.4693 6.0613 19.2304 6.51467 19.1853 7.01505C19.1396 7.51608 19.2922 8.00552 19.6142 8.39192L21.6821 10.8745ZM20.68 6.72912C20.8178 6.61449 20.9634 6.59002 21.0619 6.59002C21.2397 6.59002 21.4071 6.66859 21.5204 6.80511L23.587 9.2845C23.797 9.53759 23.7628 9.91497 23.5104 10.1256C23.2682 10.3271 22.8728 10.2911 22.6706 10.0496L20.6034 7.5676C20.5016 7.44589 20.4533 7.29069 20.4675 7.13226C20.4823 6.97448 20.5577 6.83087 20.68 6.72912ZM48.8645 31.8263C48.2231 31.058 46.9795 30.9447 46.2113 31.5855C45.8236 31.9081 45.5853 32.3621 45.5402 32.8631C45.4945 33.3635 45.6471 33.8523 45.9691 34.2381L48.0363 36.72C48.3957 37.1509 48.9231 37.3975 49.4834 37.3975C49.9239 37.3975 50.3528 37.2423 50.6896 36.9609C51.0773 36.6389 51.3149 36.1855 51.3607 35.6839C51.4057 35.1828 51.2538 34.694 50.9318 34.3076L48.8645 31.8263ZM49.8653 35.9711C49.7288 36.0851 49.5826 36.1089 49.4834 36.1089C49.3063 36.1089 49.1389 36.031 49.0255 35.8951L46.9583 33.4131C46.8565 33.2914 46.8082 33.1368 46.8224 32.9791C46.8366 32.8206 46.9126 32.6764 47.0349 32.5746C47.1727 32.46 47.3183 32.4362 47.4168 32.4362C47.5939 32.4362 47.762 32.5141 47.8753 32.65L49.9419 35.1307C50.0437 35.253 50.092 35.4082 50.0778 35.5666C50.0636 35.7251 49.9883 35.8687 49.8653 35.9711ZM37.7073 26.4605C38.0666 26.8914 38.5941 27.1387 39.155 27.1387C39.5961 27.1387 40.025 26.9835 40.3612 26.7014C41.1591 26.0381 41.2679 24.8473 40.6033 24.0475L38.5361 21.5674C37.896 20.7992 36.6518 20.6852 35.8835 21.3259C35.4958 21.6479 35.2575 22.1007 35.2118 22.6017C35.1661 23.1027 35.3181 23.5922 35.6407 23.9792L37.7073 26.4605ZM36.7065 22.3164C36.8443 22.2018 36.9899 22.1773 37.0884 22.1773C37.2662 22.1773 37.4336 22.2559 37.5469 22.3924L39.6135 24.8718C39.8235 25.1249 39.7893 25.5016 39.5362 25.7129C39.3997 25.8268 39.2542 25.8507 39.155 25.8507C38.9779 25.8507 38.8111 25.7727 38.6971 25.6362L36.6299 23.1549C36.5281 23.0325 36.4798 22.8773 36.494 22.7196C36.5082 22.5611 36.5842 22.4188 36.7065 22.3164ZM44.9542 24.6503C45.0121 24.6554 45.0701 24.658 45.1274 24.658C46.1069 24.658 46.9126 23.9213 47.0021 22.945L47.2945 19.7308C47.3891 18.6972 46.6254 17.7782 45.5898 17.6822C44.5427 17.5908 43.6372 18.3539 43.5419 19.3882L43.2495 22.603C43.1993 23.162 43.397 23.71 43.795 24.1074C44.1067 24.4197 44.5195 24.6123 44.9542 24.6503ZM44.8241 19.5054C44.8518 19.1969 45.1042 18.9651 45.4655 18.9651C45.4674 18.9651 45.4694 18.9651 45.4713 18.9651C45.7991 18.9953 46.0412 19.2858 46.011 19.6129L45.7186 22.8277C45.6903 23.1369 45.4365 23.37 45.1268 23.37L45.0688 23.3674C44.8943 23.352 44.7732 23.2657 44.7043 23.1961C44.5787 23.0705 44.5156 22.8967 44.5317 22.7202L44.8241 19.5054ZM15.8668 30.7888C14.8203 30.6967 13.9135 31.4605 13.8189 32.4948L13.5265 35.7096C13.4763 36.2686 13.674 36.8166 14.072 37.214C14.3843 37.5257 14.7971 37.7182 15.2318 37.7569C15.2898 37.762 15.3477 37.7646 15.405 37.7646C16.3846 37.7646 17.1902 37.0279 17.2797 36.0516L17.5727 32.8367C17.6668 31.8025 16.9017 30.8841 15.8668 30.7888ZM15.9962 35.9344C15.9679 36.2435 15.7142 36.4766 15.4044 36.4766L15.3464 36.474C15.1719 36.4586 15.0508 36.3723 14.9819 36.3027C14.8564 36.1772 14.7932 36.0033 14.8093 35.8268L15.1017 32.612C15.1294 32.3035 15.3819 32.0717 15.7431 32.0717C15.7451 32.0717 15.747 32.0717 15.7489 32.0717C16.0767 32.1019 16.3195 32.3924 16.2893 32.7195L15.9962 35.9344ZM26.1482 30.0624L22.9321 29.77C22.3641 29.7198 21.8225 29.9181 21.4296 30.3142C21.1186 30.6246 20.9247 31.0374 20.8848 31.476C20.8391 31.9777 20.9917 32.4671 21.3137 32.8541C21.6364 33.2412 22.0904 33.4788 22.5914 33.5239L25.8049 33.8156C25.8635 33.8208 25.9222 33.8233 25.9795 33.8233C26.9577 33.8233 27.7627 33.0873 27.8535 32.1097C27.9462 31.0735 27.1812 30.1558 26.1482 30.0624ZM25.9801 32.5347L22.7086 32.2404C22.5495 32.2262 22.4053 32.1509 22.3035 32.0285C22.2018 31.9068 22.1541 31.7516 22.1683 31.5919C22.1838 31.4148 22.27 31.295 22.3415 31.2242C22.451 31.1141 22.5966 31.0529 22.8039 31.0529C22.8084 31.0529 22.8129 31.0529 22.8168 31.0529L26.0329 31.3452C26.3594 31.3749 26.6016 31.666 26.5719 31.9918C26.543 32.3009 26.2886 32.5347 25.9801 32.5347ZM19.5517 24.2832L22.7653 24.5749C22.8239 24.5801 22.8825 24.5826 22.9398 24.5826C23.918 24.5826 24.723 23.8466 24.8138 22.869C24.9066 21.8341 24.1409 20.9164 23.1085 20.8223L19.8924 20.53C19.3225 20.4791 18.7828 20.6781 18.39 21.0741C18.0789 21.3846 17.8851 21.7974 17.8451 22.2359C17.7994 22.7376 17.952 23.227 18.274 23.6141C18.5967 24.0005 19.0507 24.2381 19.5517 24.2832ZM19.3012 21.9841C19.4107 21.874 19.5562 21.8128 19.7636 21.8128C19.7681 21.8128 19.7726 21.8128 19.7765 21.8128L22.9926 22.1052C23.3191 22.1348 23.5613 22.4259 23.5316 22.7518C23.5033 23.0609 23.2496 23.2946 22.9404 23.2946L19.6689 23.0003C19.5099 22.9862 19.3656 22.9108 19.2639 22.7885C19.1621 22.6667 19.1145 22.5115 19.1286 22.3518C19.1441 22.1747 19.2297 22.055 19.3012 21.9841ZM7.07366 26.5526L4.59363 28.6199C4.16215 28.9792 3.91486 29.5066 3.91486 30.0676C3.91486 30.5048 4.06941 30.9324 4.35213 31.2738C4.71212 31.7046 5.23956 31.9519 5.80048 31.9519C6.24033 31.9519 6.66794 31.7967 7.0054 31.5153L9.48607 29.4487C10.284 28.7841 10.3922 27.5933 9.72757 26.7935C9.08615 26.0252 7.84452 25.9112 7.07366 26.5526ZM8.6624 28.4589L6.18237 30.5254C6.0452 30.6401 5.89965 30.6639 5.80112 30.6639C5.62338 30.6639 5.4553 30.5853 5.34324 30.4507C5.25179 30.3406 5.20349 30.2079 5.20349 30.0676C5.20349 29.8905 5.28142 29.7237 5.41859 29.6097L7.89862 27.5424C8.03643 27.4278 8.18198 27.404 8.28051 27.404C8.45761 27.404 8.62505 27.4819 8.73839 27.6178C8.94833 27.8715 8.91485 28.2489 8.6624 28.4589ZM35.6304 31.7915L33.151 33.8588C32.7195 34.2175 32.4716 34.7449 32.4716 35.3065C32.4716 35.7457 32.6268 36.1733 32.9095 36.5127C33.2689 36.9435 33.7963 37.1908 34.3572 37.1908C34.7964 37.1908 35.2247 37.0362 35.5634 36.7542L38.0428 34.6876C38.8407 34.023 38.9496 32.8322 38.2843 32.0337C37.6442 31.2641 36.4019 31.1495 35.6304 31.7915ZM37.2185 33.6978L34.7391 35.7644C34.6013 35.879 34.4558 35.9028 34.3572 35.9028C34.1801 35.9028 34.0127 35.8242 33.8987 35.6884C33.8072 35.5789 33.7596 35.4469 33.7596 35.3065C33.7596 35.1294 33.8375 34.9626 33.9753 34.8486L36.4547 32.7814C36.5925 32.6667 36.7381 32.6429 36.8366 32.6429C37.0137 32.6429 37.1811 32.7208 37.2945 32.8574C37.5051 33.1111 37.4716 33.4878 37.2185 33.6978ZM27.7453 16.7561C28.1852 16.7561 28.6134 16.6016 28.9509 16.3195L31.4322 14.2529C32.2288 13.5883 32.337 12.3976 31.673 11.5984C31.0316 10.8301 29.7894 10.7174 29.0191 11.3569L26.5385 13.4248C26.1076 13.7847 25.8603 14.3122 25.8603 14.8725C25.8603 15.3097 26.0149 15.7373 26.2976 16.0787C26.657 16.5095 27.185 16.7561 27.7453 16.7561ZM27.3634 14.4139L29.8434 12.3467C29.9806 12.2321 30.1262 12.2082 30.2247 12.2082C30.4024 12.2082 30.5699 12.2868 30.6832 12.4227C30.8938 12.6758 30.859 13.0532 30.6079 13.2631L28.1272 15.3297C27.9894 15.4443 27.8438 15.4682 27.7453 15.4682C27.5682 15.4682 27.4001 15.3902 27.2881 15.2556C27.1966 15.1455 27.1483 15.0128 27.1483 14.8725C27.1483 14.6947 27.2269 14.5279 27.3634 14.4139ZM58.4234 28.1439C58.9514 27.4607 58.9579 26.4779 58.3828 25.7863C57.8521 25.1481 56.9106 24.9677 56.1636 25.2891C55.3824 24.676 54.4763 24.2143 53.4749 23.9335C53.3835 20.2878 51.7889 17.0163 49.2851 14.7057C49.4081 13.8601 48.9457 13.0062 48.1181 12.6796L45.1152 11.4934C44.5968 11.288 44.0004 11.3285 43.52 11.5913C43.5103 11.5964 43.5033 11.6042 43.4936 11.6087C42.6158 11.3987 41.7059 11.2757 40.7695 11.2545C40.1107 9.49702 38.5541 8.18069 36.6582 7.86191C36.5687 7.81554 36.4721 7.7827 36.3646 7.7827C36.1585 7.7827 35.955 7.76917 35.7534 7.75179C35.6201 6.92103 34.9445 6.24999 34.0706 6.17078L31.5378 5.94087C30.0695 4.63291 29.1396 2.746 29.1396 0.643997C29.1396 0.287866 28.8517 0 28.4956 0C20.4424 0 13.8575 6.39038 13.5349 14.3663C12.5682 14.4551 11.6602 14.7443 10.852 15.1945C10.3651 15.1513 9.86345 15.2827 9.48027 15.6027C9.09259 15.9254 8.85431 16.3794 8.80923 16.8804C8.8073 16.8978 8.81052 16.9152 8.80987 16.932C7.94241 18.0255 7.40725 19.3875 7.34414 20.8726C3.06156 22.0273 0 25.9717 0 30.4514C0 34.7533 2.69255 38.7924 6.44576 40.2176L12.5251 63.9154C12.5431 63.9869 12.5734 64.0532 12.6133 64.1124C12.6288 64.1363 12.652 64.153 12.6706 64.1749C12.6983 64.2065 12.7234 64.2406 12.7563 64.2664C12.7833 64.2863 12.8149 64.2979 12.8445 64.314C12.8767 64.3307 12.9057 64.3533 12.9398 64.3649C13.0049 64.3868 13.0757 64.3997 13.1478 64.3997H46.1243C46.1964 64.3997 46.2679 64.3868 46.3336 64.3642C46.3684 64.352 46.3974 64.3301 46.4289 64.3134C46.4586 64.2973 46.4901 64.2857 46.5172 64.2657C46.55 64.2399 46.5751 64.2058 46.6028 64.1743C46.6215 64.153 46.644 64.1356 46.6601 64.1118C46.7001 64.0525 46.7297 63.9869 46.7484 63.9147L52.847 40.1429C56.597 39.2484 59.2741 35.9015 59.2741 31.9989C59.2741 30.6014 58.9682 29.2941 58.4234 28.1439ZM56.0612 26.9448L56.5538 26.5339C56.691 26.4193 56.8366 26.3955 56.9351 26.3955C57.1122 26.3955 57.2796 26.4734 57.393 26.6099C57.6036 26.8637 57.5694 27.2404 57.3176 27.4504L56.8005 27.8812L54.8369 29.5169C54.6998 29.6316 54.5542 29.6554 54.4557 29.6554C54.278 29.6554 54.1105 29.5768 53.9972 29.4416C53.9972 29.4416 53.9972 29.4409 53.9965 29.4409L53.9959 29.4403C53.9064 29.3321 53.8581 29.1995 53.8581 29.0591C53.8581 28.882 53.936 28.7152 54.0725 28.6012L54.8743 27.9334L56.0612 26.9448C56.0605 26.9442 56.0605 26.9442 56.0612 26.9448ZM43.8671 13.0268C43.9334 12.8593 44.0481 12.7698 44.1337 12.7228C44.2245 12.6739 44.3231 12.6481 44.4222 12.6481C44.4963 12.6481 44.5704 12.6623 44.6418 12.69L47.6448 13.8762C47.9494 13.9973 48.0995 14.345 47.979 14.6516C47.8882 14.8795 47.6706 15.0277 47.4252 15.0277C47.3569 15.0277 47.2887 15.0135 47.2236 14.9884C47.2178 14.9864 47.2114 14.9877 47.2062 14.9852L45.5061 14.3128L44.2046 13.7989C44.1299 13.7693 44.0635 13.7268 44.0075 13.6727C43.9521 13.6192 43.907 13.5542 43.8755 13.4814C43.8111 13.3359 43.8085 13.1742 43.8671 13.0268ZM30.0901 7.70027C30.0901 7.69962 30.0901 7.69962 30.0901 7.69898C30.1056 7.52317 30.1918 7.4021 30.2614 7.33319L30.262 7.33255C30.3741 7.22049 30.5235 7.15867 30.6826 7.15867L30.7206 7.16189C30.7225 7.16189 30.7238 7.16124 30.7257 7.16124C30.7302 7.16124 30.7347 7.16124 30.7386 7.16124L31.0104 7.18571C31.0117 7.187 31.0129 7.18765 31.0142 7.18829L33.9541 7.45362C34.2812 7.48324 34.5227 7.77368 34.4931 8.10148C34.4648 8.40995 34.2104 8.64308 33.9019 8.64308L33.8459 8.6405L30.698 8.35457L30.6311 8.34813C30.472 8.33396 30.3277 8.25861 30.226 8.1369C30.1242 8.01518 30.0753 7.85998 30.0901 7.70027ZM27.8863 1.31891C28.0319 3.12145 28.748 4.76493 29.8615 6.07031C29.676 6.16112 29.4996 6.27253 29.3495 6.42322C29.0378 6.73556 28.8453 7.14901 28.8066 7.58435C28.7609 8.08602 28.9135 8.57546 29.2355 8.96186C29.5582 9.3489 30.0122 9.58653 30.5132 9.63161L33.7274 9.92399C33.7854 9.92914 33.8433 9.93172 33.9006 9.93172C34.5794 9.93172 35.1693 9.57237 35.4997 9.02819C35.5254 9.03076 35.5518 9.03012 35.5776 9.03205C35.6407 9.05202 35.7038 9.07198 35.7734 9.07198C38.0074 9.07198 39.8241 10.8887 39.8241 13.1227C39.8241 15.7393 34.9143 17.4298 27.3151 17.4298C19.2214 17.4298 14.8061 15.8108 14.8061 14.9794C14.8068 7.63458 20.6214 1.6409 27.8863 1.31891ZM10.3039 16.5926C10.4418 16.4779 10.5873 16.4541 10.6858 16.4541C10.8179 16.4541 10.9376 16.5095 11.0407 16.5881C11.0755 16.6145 11.1154 16.6331 11.1444 16.6679L11.145 16.6686L13.2109 19.1486C13.3127 19.271 13.361 19.4262 13.3468 19.5846C13.3327 19.743 13.2573 19.8866 13.135 19.9884C13.1343 19.9884 13.1343 19.989 13.1343 19.989C13.133 19.9903 13.1304 19.9903 13.1292 19.9916C13.0699 20.0399 13.0029 20.0727 12.9308 20.0953C12.9282 20.0959 12.9257 20.0959 12.9224 20.0966C12.8677 20.1133 12.811 20.1268 12.7524 20.1268C12.7363 20.1268 12.7222 20.1178 12.7067 20.1165C12.69 20.1152 12.6739 20.1075 12.6571 20.1049C12.5953 20.0946 12.536 20.0843 12.4813 20.056C12.4105 20.0212 12.3461 19.9742 12.2945 19.9124L12.2939 19.9117C12.2939 19.9111 12.2933 19.9111 12.2933 19.9111L10.9164 18.2579L10.2273 17.4311C10.2016 17.4001 10.1893 17.3628 10.1706 17.328C10.1153 17.2263 10.0805 17.1149 10.0914 16.997C10.1056 16.8379 10.1816 16.6943 10.3039 16.5926ZM8.61668 21.1662C8.61668 20.1597 8.89037 19.2181 9.36114 18.4035L11.306 20.7373C11.666 21.1675 12.1934 21.4142 12.7531 21.4142C13.1936 21.4142 13.6218 21.259 13.9586 20.9775C14.3463 20.6555 14.5839 20.2022 14.6297 19.7005C14.6748 19.1995 14.5228 18.7107 14.2008 18.3243L12.2411 15.9724C12.6996 15.8017 13.1852 15.689 13.6914 15.6459C14.9427 18.0538 22.9263 18.7165 27.3158 18.7165C35.955 18.7165 41.1127 16.6248 41.1127 13.1214C41.1127 12.9308 41.1018 12.7434 41.0825 12.5579C41.6035 12.5856 42.1161 12.6404 42.6178 12.7331C42.4986 13.1498 42.5179 13.5903 42.6931 13.994C42.8934 14.4558 43.2624 14.8126 43.7306 14.9967L46.731 16.183C46.9538 16.2712 47.1869 16.3157 47.4246 16.3157C47.8857 16.3157 48.3126 16.1476 48.6456 15.8623C50.8287 17.9888 52.1921 20.9505 52.2011 24.2297C52.1071 25.1371 50.3734 26.5198 45.7695 27.4562C41.3729 28.35 35.7476 28.5877 29.9265 28.1227C17.1245 27.1007 8.41961 23.663 8.6141 21.2171C8.61474 21.2081 8.61023 21.2004 8.61088 21.1914C8.61152 21.1823 8.61668 21.1753 8.61668 21.1662ZM13.6476 63.1117L7.78785 40.2691L10.9151 39.8093L15.6581 63.1117H13.6476ZM16.9719 63.1117L12.2372 39.8486L15.481 40.3039L18.9921 63.1117H16.9719ZM20.2956 63.1117L16.7819 40.282L19.9343 39.8196L22.3274 63.1117H20.2956ZM23.6231 63.1117L21.2313 39.8383L24.4912 40.3045L25.6613 63.1117H23.6231ZM28.9921 63.1117H26.9513L25.7805 40.2852L28.9927 39.8267L28.9921 63.1117ZM32.3215 63.1117H30.2794L30.2807 39.8247L33.4936 40.2743L32.3215 63.1117ZM33.6115 63.1117L34.781 40.3161L38.0634 39.8409L35.6504 63.1117H33.6115ZM36.9461 63.1117L39.3617 39.8177L42.4922 40.2691L38.9766 63.1117H36.9461ZM40.2801 63.1117L43.7885 40.3168L46.977 39.8531L42.299 63.1117H40.2801ZM45.6252 63.1117H43.6134L48.3036 39.7938L51.5094 40.1732L45.6252 63.1117ZM52.2352 38.9624L47.8644 38.4447C47.8084 38.4376 47.7517 38.4389 47.6963 38.4472L47.6622 38.4524C47.6615 38.4524 47.6603 38.4524 47.6596 38.4524L43.3088 39.0848L38.8819 38.4466C38.8768 38.446 38.8716 38.4472 38.8671 38.4466C38.8633 38.446 38.8607 38.444 38.8568 38.4434C38.8459 38.4427 38.8375 38.4472 38.8266 38.4466C38.784 38.4447 38.7403 38.4408 38.6978 38.4472L34.2922 39.0854L29.7256 38.4466C29.7063 38.4434 29.6863 38.4472 29.6676 38.4466C29.656 38.446 29.6477 38.4402 29.6361 38.4402C29.6245 38.4402 29.6161 38.446 29.6045 38.4466C29.5846 38.4479 29.5646 38.444 29.5446 38.4466L25.0663 39.0854L20.5969 38.4466C20.5564 38.4408 20.5152 38.4447 20.4746 38.4472C20.4623 38.4472 20.452 38.4421 20.4398 38.4434C20.4353 38.444 20.4321 38.4466 20.4276 38.4472C20.4224 38.4479 20.4166 38.4466 20.4121 38.4472L16.0658 39.0854L11.5147 38.4466C11.4541 38.4376 11.3936 38.4382 11.3318 38.4472L7.0582 39.0745C3.70749 37.8921 1.28735 34.2935 1.28735 30.4514C1.28735 26.6132 3.86849 23.2238 7.50385 22.1606C8.98246 25.8352 19.6187 28.5915 29.8248 29.4068C31.8018 29.564 33.7589 29.6419 35.6574 29.6419C39.4564 29.6419 43.0177 29.3295 46.0264 28.7171C48.8961 28.1343 52.2732 27.0665 53.2302 25.2015C53.9019 25.4024 54.5214 25.7019 55.0739 26.0896L53.2489 27.6107C52.8174 27.9701 52.5701 28.4975 52.5701 29.0584C52.5701 29.497 52.7246 29.9246 53.0074 30.2646C53.3667 30.6955 53.8941 30.9427 54.4557 30.9427C54.8949 30.9427 55.3232 30.7875 55.6606 30.5061L57.4168 29.0436C57.7858 29.9394 57.9867 30.9389 57.9867 31.9989C57.9861 35.4095 55.5724 38.3236 52.2352 38.9624Z" fill="#6A2C70"/>
</svg>
