<svg width="17" height="20" viewBox="0 0 17 20" fill="none" xmlns="http://www.w3.org/2000/svg">
<path d="M6.21849 4.04854C6.32174 4.17192 6.47301 4.24266 6.63351 4.24266C6.75985 4.24266 6.88267 4.19814 6.97927 4.11743C7.20811 3.92682 7.23933 3.58531 7.04872 3.3561L6.45583 2.64481C6.27224 2.42447 5.91577 2.39159 5.69486 2.57574C5.58386 2.66809 5.51534 2.79812 5.50241 2.94163C5.48929 3.08532 5.53307 3.2257 5.62542 3.33652L6.21849 4.04854ZM5.9311 2.85962C5.97062 2.82674 6.01236 2.81973 6.04062 2.81973C6.0916 2.81973 6.13962 2.84226 6.17213 2.88142L6.76483 3.59251C6.82505 3.6651 6.81526 3.77333 6.74285 3.83373C6.67341 3.89154 6.56 3.8812 6.502 3.81194L5.90912 3.1001C5.87993 3.06519 5.86608 3.02068 5.87015 2.97524C5.87439 2.92999 5.896 2.8888 5.9311 2.85962ZM14.0145 10.0576C13.8305 9.83723 13.4739 9.80472 13.2535 9.9885C13.1423 10.081 13.074 10.2112 13.0611 10.3549C13.048 10.4985 13.0917 10.6386 13.1841 10.7493L13.777 11.4611C13.88 11.5847 14.0313 11.6554 14.192 11.6554C14.3183 11.6554 14.4413 11.6109 14.5379 11.5302C14.6491 11.4378 14.7173 11.3078 14.7304 11.1639C14.7433 11.0202 14.6997 10.88 14.6074 10.7692L14.0145 10.0576ZM14.3015 11.2463C14.2624 11.279 14.2204 11.2858 14.192 11.2858C14.1412 11.2858 14.0932 11.2635 14.0607 11.2245L13.4678 10.5127C13.4386 10.4778 13.4248 10.4334 13.4288 10.3882C13.4329 10.3428 13.4547 10.3014 13.4898 10.2722C13.5293 10.2393 13.571 10.2325 13.5993 10.2325C13.6501 10.2325 13.6983 10.2548 13.7308 10.2938L14.3235 11.0053C14.3527 11.0404 14.3665 11.0849 14.3625 11.1303C14.3584 11.1758 14.3368 11.2169 14.3015 11.2463ZM10.8146 8.51865C10.9176 8.64222 11.0689 8.71314 11.2298 8.71314C11.3563 8.71314 11.4793 8.66863 11.5757 8.58773C11.8046 8.39749 11.8358 8.05598 11.6452 7.82658L11.0523 7.1153C10.8687 6.89495 10.5118 6.86226 10.2915 7.04604C10.1803 7.13839 10.112 7.26823 10.0989 7.41193C10.0857 7.55563 10.1293 7.696 10.2219 7.807L10.8146 8.51865ZM10.5275 7.33011C10.5671 7.29723 10.6088 7.29021 10.6371 7.29021C10.6881 7.29021 10.7361 7.31274 10.7686 7.3519L11.3613 8.063C11.4215 8.13558 11.4117 8.24363 11.3391 8.30422C11.3 8.33691 11.2582 8.34374 11.2298 8.34374C11.179 8.34374 11.1311 8.32139 11.0985 8.28224L10.5056 7.57059C10.4764 7.53549 10.4625 7.49098 10.4666 7.44573C10.4707 7.40029 10.4925 7.35947 10.5275 7.33011ZM12.893 7.99946C12.9096 8.00094 12.9262 8.00168 12.9427 8.00168C13.2236 8.00168 13.4547 7.79038 13.4803 7.51037L13.5642 6.58854C13.5914 6.29209 13.3723 6.02852 13.0753 6.001C12.775 5.97478 12.5153 6.19365 12.488 6.49027L12.4041 7.4123C12.3897 7.57262 12.4464 7.7298 12.5605 7.84376C12.6499 7.93334 12.7683 7.98856 12.893 7.99946ZM12.8557 6.52389C12.8636 6.43542 12.936 6.36893 13.0397 6.36893C13.0402 6.36893 13.0408 6.36893 13.0413 6.36893C13.1353 6.37761 13.2048 6.46091 13.1961 6.55473L13.1122 7.47676C13.1041 7.56541 13.0313 7.63228 12.9425 7.63228L12.9259 7.63154C12.8758 7.6271 12.8411 7.60236 12.8213 7.58241C12.7853 7.54639 12.7672 7.49652 12.7718 7.44591L12.8557 6.52389ZM4.55065 9.76002C4.25051 9.73361 3.99045 9.95267 3.9633 10.2493L3.87944 11.1713C3.86504 11.3316 3.92174 11.4888 4.03589 11.6028C4.12547 11.6922 4.24386 11.7474 4.36853 11.7585C4.38515 11.76 4.40178 11.7607 4.41822 11.7607C4.69914 11.7607 4.93021 11.5494 4.95588 11.2694L5.03992 10.3474C5.06688 10.0507 4.84746 9.78736 4.55065 9.76002ZM4.58777 11.2358C4.57964 11.3244 4.50687 11.3913 4.41803 11.3913L4.40141 11.3906C4.35135 11.3861 4.31663 11.3614 4.29687 11.3414C4.26085 11.3054 4.24275 11.2555 4.24737 11.2049L4.33122 10.2829C4.33916 10.1944 4.41157 10.1279 4.51518 10.1279C4.51574 10.1279 4.51629 10.1279 4.51685 10.1279C4.61086 10.1366 4.68049 10.2199 4.67181 10.3138L4.58777 11.2358ZM7.49939 9.55168L6.57699 9.46783C6.41409 9.45342 6.25875 9.51031 6.14609 9.6239C6.05688 9.71293 6.00128 9.83132 5.98983 9.9571C5.97672 10.101 6.02049 10.2414 6.11284 10.3524C6.20538 10.4634 6.33559 10.5315 6.47929 10.5444L7.40094 10.6281C7.41775 10.6296 7.43456 10.6303 7.45099 10.6303C7.73155 10.6303 7.96243 10.4192 7.98847 10.1388C8.01507 9.84166 7.79565 9.57846 7.49939 9.55168ZM7.45118 10.2607L6.5129 10.1763C6.46728 10.1723 6.42591 10.1507 6.39673 10.1156C6.36754 10.0807 6.35387 10.0362 6.35794 9.99035C6.36237 9.93955 6.38712 9.9052 6.40762 9.88488C6.43902 9.8533 6.48076 9.83575 6.54024 9.83575C6.54153 9.83575 6.54282 9.83575 6.54393 9.83575L7.46632 9.91961C7.55997 9.9281 7.62942 10.0116 7.62092 10.105C7.61261 10.1937 7.53965 10.2607 7.45118 10.2607ZM5.6075 7.89418L6.52916 7.97785C6.54596 7.97933 6.56277 7.98007 6.57921 7.98007C6.85977 7.98007 7.09064 7.76896 7.11669 7.48858C7.14328 7.19177 6.92368 6.92857 6.6276 6.9016L5.70521 6.81775C5.54175 6.80316 5.38697 6.86023 5.2743 6.97382C5.18509 7.06285 5.1295 7.18124 5.11805 7.30702C5.10493 7.4509 5.14871 7.59127 5.24106 7.70228C5.33359 7.8131 5.4638 7.88125 5.6075 7.89418ZM5.53565 7.2348C5.56705 7.20322 5.60879 7.18567 5.66827 7.18567C5.66956 7.18567 5.67085 7.18567 5.67196 7.18567L6.59435 7.26953C6.688 7.27802 6.75745 7.36151 6.74895 7.45496C6.74082 7.54362 6.66805 7.61067 6.57939 7.61067L5.64112 7.52626C5.5955 7.5222 5.55412 7.50059 5.52494 7.46549C5.49576 7.43058 5.48209 7.38607 5.48615 7.34027C5.49059 7.28947 5.51515 7.25512 5.53565 7.2348ZM2.02875 8.54507L1.31747 9.13795C1.19372 9.24102 1.12279 9.39229 1.12279 9.55316C1.12279 9.67857 1.16712 9.80121 1.2482 9.8991C1.35145 10.0227 1.50272 10.0936 1.6636 10.0936C1.78975 10.0936 1.91239 10.0491 2.00917 9.96837L2.72064 9.37566C2.94948 9.18505 2.98051 8.84354 2.7899 8.61414C2.60594 8.3938 2.24983 8.3611 2.02875 8.54507ZM2.4844 9.09178L1.77312 9.68448C1.73378 9.71736 1.69204 9.72419 1.66378 9.72419C1.6128 9.72419 1.5646 9.70166 1.53246 9.66306C1.50623 9.63147 1.49238 9.59342 1.49238 9.55316C1.49238 9.50237 1.51473 9.45453 1.55407 9.42184L2.26535 8.82895C2.30488 8.79607 2.34662 8.78924 2.37488 8.78924C2.42567 8.78924 2.47369 8.81159 2.5062 8.85056C2.56641 8.92333 2.55681 9.03157 2.4844 9.09178ZM10.2189 10.0476L9.50782 10.6405C9.38407 10.7434 9.31296 10.8946 9.31296 11.0557C9.31296 11.1817 9.35747 11.3043 9.43855 11.4016C9.54162 11.5252 9.69289 11.5961 9.85376 11.5961C9.97973 11.5961 10.1026 11.5518 10.1997 11.4709L10.9108 10.8782C11.1396 10.6876 11.1709 10.3461 10.9801 10.117C10.7965 9.89633 10.4402 9.86346 10.2189 10.0476ZM10.6744 10.5943L9.96329 11.187C9.92376 11.2199 9.88202 11.2267 9.85376 11.2267C9.80297 11.2267 9.75495 11.2042 9.72225 11.1652C9.69603 11.1338 9.68236 11.096 9.68236 11.0557C9.68236 11.0049 9.70471 10.9571 9.74423 10.9244L10.4553 10.3315C10.4949 10.2986 10.5366 10.2918 10.5649 10.2918C10.6156 10.2918 10.6637 10.3141 10.6962 10.3533C10.7566 10.4261 10.747 10.5341 10.6744 10.5943ZM7.95744 5.7354C8.08359 5.7354 8.20642 5.69108 8.3032 5.61018L9.01485 5.01747C9.24333 4.82686 9.27436 4.48535 9.08393 4.25614C8.89997 4.03579 8.54368 4.00347 8.32278 4.18688L7.61131 4.77995C7.48775 4.8832 7.41683 5.03447 7.41683 5.19516C7.41683 5.32057 7.46115 5.44321 7.54224 5.5411C7.6453 5.66466 7.79675 5.7354 7.95744 5.7354ZM7.84792 5.06365L8.5592 4.47076C8.59854 4.43789 8.64028 4.43105 8.66854 4.43105C8.71952 4.43105 8.76754 4.45358 8.80005 4.49256C8.86044 4.56514 8.85047 4.67338 8.77844 4.73359L8.06697 5.32629C8.02744 5.35917 7.9857 5.366 7.95744 5.366C7.90665 5.366 7.85844 5.34366 7.82631 5.30505C7.80008 5.27347 7.78623 5.23542 7.78623 5.19516C7.78623 5.14418 7.80876 5.09634 7.84792 5.06365ZM16.756 9.00146C16.9075 8.80549 16.9093 8.52364 16.7444 8.32527C16.5922 8.14223 16.3221 8.09052 16.1079 8.18268C15.8839 8.00685 15.624 7.87442 15.3368 7.79389C15.3105 6.7483 14.8532 5.81002 14.1351 5.14732C14.1704 4.90481 14.0378 4.65989 13.8004 4.56625L12.9392 4.22603C12.7905 4.16711 12.6195 4.17875 12.4817 4.25411C12.4789 4.25559 12.4769 4.2578 12.4741 4.25909C12.2224 4.19888 11.9614 4.1636 11.6928 4.15751C11.5039 3.65346 11.0575 3.27594 10.5137 3.18451C10.488 3.17121 10.4603 3.16179 10.4295 3.16179C10.3704 3.16179 10.312 3.15791 10.2542 3.15292C10.216 2.91466 10.0222 2.7222 9.77157 2.69949L9.04514 2.63355C8.62403 2.25842 8.35732 1.71725 8.35732 1.11439C8.35732 1.01225 8.27476 0.929688 8.17262 0.929688C5.86294 0.929688 3.97438 2.76247 3.88185 5.04998C3.60461 5.07547 3.34418 5.1584 3.11238 5.28751C2.97275 5.27513 2.82887 5.31281 2.71897 5.40461C2.60778 5.49714 2.53944 5.62735 2.52652 5.77105C2.52596 5.77604 2.52688 5.78103 2.5267 5.78583C2.27791 6.09945 2.12442 6.49009 2.10632 6.91601C0.878065 7.24718 0 8.37847 0 9.66324C0 10.897 0.772232 12.0555 1.84867 12.4642L3.59224 19.2608C3.59741 19.2813 3.60609 19.3003 3.61754 19.3173C3.62197 19.3242 3.62862 19.329 3.63398 19.3353C3.64192 19.3443 3.64912 19.3541 3.65854 19.3615C3.6663 19.3672 3.67535 19.3705 3.68385 19.3752C3.69308 19.38 3.70139 19.3864 3.71118 19.3897C3.72984 19.396 3.75015 19.3997 3.77084 19.3997H13.2286C13.2493 19.3997 13.2698 19.396 13.2886 19.3896C13.2986 19.386 13.3069 19.3798 13.316 19.375C13.3245 19.3703 13.3335 19.367 13.3413 19.3613C13.3507 19.3539 13.3579 19.3441 13.3658 19.3351C13.3712 19.329 13.3777 19.324 13.3823 19.3172C13.3937 19.3002 13.4022 19.2813 13.4076 19.2606L15.1567 12.4428C16.2322 12.1862 17 11.2264 17 10.1071C17 9.70628 16.9123 9.33133 16.756 9.00146ZM16.0785 8.65755L16.2198 8.53971C16.2592 8.50683 16.3009 8.5 16.3292 8.5C16.38 8.5 16.428 8.52235 16.4605 8.5615C16.5209 8.63428 16.5111 8.74233 16.4389 8.80254L16.2906 8.9261L15.7274 9.39524C15.6881 9.42812 15.6463 9.43495 15.6181 9.43495C15.5671 9.43495 15.5191 9.41242 15.4866 9.37363C15.4866 9.37363 15.4866 9.37345 15.4864 9.37345L15.4862 9.37326C15.4605 9.34223 15.4467 9.30418 15.4467 9.26392C15.4467 9.21313 15.469 9.16529 15.5082 9.1326L15.7381 8.94106L16.0785 8.65755C16.0783 8.65736 16.0783 8.65736 16.0785 8.65755ZM12.5812 4.66581C12.6003 4.61778 12.6331 4.59211 12.6577 4.57863C12.6837 4.56459 12.712 4.5572 12.7404 4.5572C12.7617 4.5572 12.7829 4.56126 12.8034 4.56921L13.6647 4.90942C13.752 4.94415 13.7951 5.04389 13.7605 5.1318C13.7345 5.19719 13.6721 5.23967 13.6017 5.23967C13.5821 5.23967 13.5625 5.23561 13.5439 5.2284C13.5422 5.22785 13.5404 5.22822 13.5389 5.22748L13.0513 5.03465L12.678 4.88726C12.6566 4.87876 12.6376 4.86657 12.6215 4.85106C12.6056 4.83573 12.5927 4.81707 12.5836 4.7962C12.5652 4.75446 12.5644 4.7081 12.5812 4.66581ZM8.62994 3.13815C8.62994 3.13796 8.62994 3.13796 8.62994 3.13778C8.63437 3.08736 8.65912 3.05263 8.67907 3.03287L8.67925 3.03269C8.71139 3.00055 8.75424 2.98282 8.79986 2.98282L8.81076 2.98374C8.81131 2.98374 8.81168 2.98355 8.81224 2.98355C8.81353 2.98355 8.81482 2.98355 8.81593 2.98355L8.89387 2.99057C8.89424 2.99094 8.89461 2.99113 8.89498 2.99131L9.73814 3.06741C9.83197 3.0759 9.90123 3.1592 9.89273 3.25322C9.88461 3.34169 9.81165 3.40855 9.72318 3.40855L9.70711 3.40781L8.80429 3.3258L8.78508 3.32396C8.73946 3.31989 8.69809 3.29828 8.66891 3.26338C8.63973 3.22847 8.62569 3.18395 8.62994 3.13815ZM7.99789 1.30795C8.03963 1.82493 8.24502 2.29628 8.56437 2.67067C8.51117 2.69672 8.46057 2.72867 8.41753 2.77189C8.32814 2.86147 8.27291 2.98005 8.26183 3.1049C8.24872 3.24878 8.29249 3.38916 8.38484 3.49998C8.47737 3.61098 8.60759 3.67914 8.75128 3.69207L9.67312 3.77592C9.68975 3.7774 9.70637 3.77814 9.72281 3.77814C9.91748 3.77814 10.0867 3.67507 10.1814 3.519C10.1888 3.51974 10.1964 3.51955 10.2038 3.52011C10.2219 3.52583 10.24 3.53156 10.2599 3.53156C10.9006 3.53156 11.4217 4.0526 11.4217 4.69333C11.4217 5.44376 10.0135 5.9286 7.83406 5.9286C5.51275 5.9286 4.24644 5.46426 4.24644 5.22582C4.24663 3.11931 5.91429 1.4003 7.99789 1.30795ZM2.9552 5.68849C2.99473 5.65561 3.03647 5.64878 3.06473 5.64878C3.1026 5.64878 3.13695 5.66466 3.1665 5.6872C3.17648 5.69477 3.18793 5.70013 3.19624 5.7101L3.19642 5.71029L3.78894 6.42157C3.81812 6.45666 3.83198 6.50117 3.82791 6.54661C3.82385 6.59204 3.80224 6.63323 3.76715 6.66242C3.76696 6.66242 3.76696 6.6626 3.76696 6.6626C3.76659 6.66297 3.76585 6.66297 3.76549 6.66334C3.74849 6.67719 3.72928 6.68661 3.7086 6.69308C3.70786 6.69326 3.70712 6.69326 3.7062 6.69344C3.6905 6.69825 3.67424 6.70213 3.65744 6.70213C3.65282 6.70213 3.64875 6.69954 3.64432 6.69917C3.63952 6.6988 3.6349 6.69658 3.6301 6.69585C3.61237 6.69289 3.59538 6.68994 3.57968 6.68181C3.55936 6.67183 3.54089 6.65835 3.52611 6.64062L3.52593 6.64044C3.52593 6.64025 3.52574 6.64025 3.52574 6.64025L3.13085 6.16613L2.93323 5.92897C2.92584 5.9201 2.92233 5.90939 2.91697 5.89942C2.90109 5.87024 2.89111 5.83828 2.89425 5.80448C2.89832 5.75886 2.92011 5.71767 2.9552 5.68849ZM2.47129 7.00023C2.47129 6.71155 2.54979 6.44151 2.6848 6.20787L3.2426 6.87722C3.34585 7.0006 3.49712 7.07134 3.65762 7.07134C3.78396 7.07134 3.90678 7.02683 4.00338 6.94612C4.11457 6.85377 4.18272 6.72374 4.19584 6.57985C4.20877 6.43616 4.16518 6.29597 4.07283 6.18515L3.51078 5.51062C3.64229 5.46168 3.78155 5.42936 3.92673 5.41698C4.2856 6.10758 6.57533 6.29763 7.83425 6.29763C10.312 6.29763 11.7913 5.69773 11.7913 4.69296C11.7913 4.63828 11.7881 4.58454 11.7826 4.53134C11.932 4.53929 12.079 4.55498 12.2229 4.58158C12.1887 4.70108 12.1943 4.82742 12.2445 4.94322C12.302 5.07565 12.4078 5.17798 12.5421 5.2308L13.4026 5.57102C13.4665 5.59633 13.5334 5.60907 13.6015 5.60907C13.7338 5.60907 13.8562 5.56086 13.9517 5.47904C14.5778 6.08892 14.9689 6.93836 14.9714 7.87885C14.9445 8.13909 14.4473 8.53565 13.1268 8.8042C11.8659 9.06056 10.2525 9.12872 8.58302 8.99536C4.91137 8.70225 2.41477 7.71632 2.47055 7.01482C2.47074 7.01224 2.46944 7.01002 2.46963 7.00744C2.46981 7.00485 2.47129 7.00282 2.47129 7.00023ZM3.91417 19.0303L2.23358 12.479L3.13049 12.3471L4.4908 19.0303H3.91417ZM4.86759 19.0303L3.50968 12.3584L4.44001 12.489L5.447 19.0303H4.86759ZM5.82083 19.0303L4.8131 12.4827L5.71721 12.3501L6.40356 19.0303H5.82083ZM6.77518 19.0303L6.0892 12.3554L7.02415 12.4892L7.35975 19.0303H6.77518ZM8.31502 19.0303H7.72971L7.39392 12.4836L8.31521 12.3521L8.31502 19.0303ZM9.26992 19.0303H8.68424L8.68461 12.3516L9.60608 12.4805L9.26992 19.0303ZM9.63988 19.0303L9.97529 12.4925L10.9167 12.3562L10.2246 19.0303H9.63988ZM10.5963 19.0303L11.2891 12.3495L12.1869 12.479L11.1786 19.0303H10.5963ZM11.5524 19.0303L12.5587 12.4927L13.4731 12.3597L12.1315 19.0303H11.5524ZM13.0855 19.0303H12.5085L13.8536 12.3427L14.7731 12.4515L13.0855 19.0303ZM14.9812 12.1042L13.7277 11.9557C13.7116 11.9537 13.6953 11.9541 13.6795 11.9565L13.6697 11.958C13.6695 11.958 13.6691 11.958 13.6689 11.958L12.4211 12.1393L11.1515 11.9563C11.15 11.9561 11.1485 11.9565 11.1472 11.9563C11.1461 11.9561 11.1454 11.9556 11.1443 11.9554C11.1411 11.9552 11.1387 11.9565 11.1356 11.9563C11.1234 11.9557 11.1108 11.9546 11.0986 11.9565L9.83511 12.1395L8.5254 11.9563C8.51986 11.9554 8.51413 11.9565 8.50877 11.9563C8.50545 11.9561 8.50305 11.9544 8.49972 11.9544C8.4964 11.9544 8.494 11.9561 8.49067 11.9563C8.48495 11.9567 8.47922 11.9556 8.4735 11.9563L7.18909 12.1395L5.90727 11.9563C5.89563 11.9546 5.88381 11.9557 5.87218 11.9565C5.86867 11.9565 5.86571 11.955 5.8622 11.9554C5.86091 11.9556 5.85999 11.9563 5.85869 11.9565C5.85722 11.9567 5.85555 11.9563 5.85426 11.9565L4.60772 12.1395L3.30244 11.9563C3.28508 11.9537 3.26772 11.9539 3.24999 11.9565L2.02432 12.1364C1.06332 11.7973 0.369216 10.7652 0.369216 9.66324C0.369216 8.56243 1.10949 7.59035 2.15213 7.28541C2.5762 8.33931 5.62671 9.12983 8.55384 9.36366C9.12087 9.40872 9.68217 9.43107 10.2267 9.43107C11.3162 9.43107 12.3376 9.34149 13.2005 9.16584C14.0236 8.99869 14.9921 8.69246 15.2666 8.15756C15.4592 8.21519 15.6369 8.30108 15.7954 8.41227L15.2719 8.84853C15.1482 8.95159 15.0773 9.10286 15.0773 9.26373C15.0773 9.38952 15.1216 9.51216 15.2027 9.60968C15.3057 9.73324 15.457 9.80417 15.6181 9.80417C15.744 9.80417 15.8669 9.75965 15.9636 9.67894L16.4673 9.25949C16.5732 9.5164 16.6308 9.80306 16.6308 10.1071C16.6306 11.0852 15.9383 11.921 14.9812 12.1042Z" fill="#6A2C70"/>
</svg>
