<svg width="414" height="82" viewBox="0 0 414 82" fill="none" xmlns="http://www.w3.org/2000/svg">
<g clip-path="url(#clip0_655_104)">
<path d="M176.682 20.8745C177.042 21.3047 177.57 21.5514 178.129 21.5514C178.57 21.5514 178.998 21.3962 179.335 21.1147C180.133 20.4501 180.241 19.2594 179.577 18.4602L177.51 15.9802C176.869 15.2119 175.627 15.0972 174.856 15.7393C174.469 16.0613 174.23 16.5147 174.185 17.0151C174.14 17.5161 174.292 18.0055 174.614 18.3919L176.682 20.8745ZM175.68 16.7291C175.818 16.6145 175.963 16.59 176.062 16.59C176.24 16.59 176.407 16.6686 176.52 16.8051L178.587 19.2845C178.797 19.5376 178.763 19.915 178.51 20.1256C178.268 20.3271 177.873 20.2911 177.671 20.0496L175.603 17.5676C175.502 17.4459 175.453 17.2907 175.468 17.1323C175.482 16.9745 175.558 16.8309 175.68 16.7291ZM203.865 41.8263C203.223 41.058 201.98 40.9447 201.211 41.5855C200.824 41.9081 200.585 42.3621 200.54 42.8631C200.494 43.3635 200.647 43.8523 200.969 44.2381L203.036 46.72C203.396 47.1509 203.923 47.3975 204.483 47.3975C204.924 47.3975 205.353 47.2423 205.69 46.9609C206.077 46.6389 206.315 46.1855 206.361 45.6839C206.406 45.1828 206.254 44.694 205.932 44.3076L203.865 41.8263ZM204.865 45.9711C204.729 46.0851 204.583 46.1089 204.483 46.1089C204.306 46.1089 204.139 46.031 204.026 45.8951L201.958 43.4131C201.857 43.2914 201.808 43.1368 201.822 42.9791C201.837 42.8206 201.913 42.6764 202.035 42.5746C202.173 42.46 202.318 42.4362 202.417 42.4362C202.594 42.4362 202.762 42.5141 202.875 42.65L204.942 45.1307C205.044 45.253 205.092 45.4082 205.078 45.5666C205.064 45.7251 204.988 45.8687 204.865 45.9711ZM192.707 36.4605C193.067 36.8914 193.594 37.1387 194.155 37.1387C194.596 37.1387 195.025 36.9835 195.361 36.7014C196.159 36.0381 196.268 34.8473 195.603 34.0475L193.536 31.5674C192.896 30.7992 191.652 30.6852 190.883 31.3259C190.496 31.6479 190.258 32.1007 190.212 32.6017C190.166 33.1027 190.318 33.5922 190.641 33.9792L192.707 36.4605ZM191.707 32.3164C191.844 32.2018 191.99 32.1773 192.088 32.1773C192.266 32.1773 192.434 32.2559 192.547 32.3924L194.614 34.8718C194.823 35.1249 194.789 35.5016 194.536 35.7129C194.4 35.8268 194.254 35.8507 194.155 35.8507C193.978 35.8507 193.811 35.7727 193.697 35.6362L191.63 33.1549C191.528 33.0325 191.48 32.8773 191.494 32.7196C191.508 32.5611 191.584 32.4188 191.707 32.3164ZM199.954 34.6503C200.012 34.6554 200.07 34.658 200.127 34.658C201.107 34.658 201.913 33.9213 202.002 32.945L202.294 29.7308C202.389 28.6972 201.625 27.7782 200.59 27.6822C199.543 27.5908 198.637 28.3539 198.542 29.3882L198.25 32.603C198.199 33.162 198.397 33.71 198.795 34.1074C199.107 34.4197 199.519 34.6123 199.954 34.6503ZM199.824 29.5054C199.852 29.1969 200.104 28.9651 200.466 28.9651C200.467 28.9651 200.469 28.9651 200.471 28.9651C200.799 28.9953 201.041 29.2858 201.011 29.6129L200.719 32.8277C200.69 33.1369 200.437 33.37 200.127 33.37L200.069 33.3674C199.894 33.352 199.773 33.2657 199.704 33.1961C199.579 33.0705 199.516 32.8967 199.532 32.7202L199.824 29.5054ZM170.867 40.7888C169.82 40.6967 168.914 41.4605 168.819 42.4948L168.527 45.7096C168.476 46.2686 168.674 46.8166 169.072 47.214C169.384 47.5257 169.797 47.7182 170.232 47.7569C170.29 47.762 170.348 47.7646 170.405 47.7646C171.385 47.7646 172.19 47.0279 172.28 46.0516L172.573 42.8367C172.667 41.8025 171.902 40.8841 170.867 40.7888ZM170.996 45.9344C170.968 46.2435 170.714 46.4766 170.404 46.4766L170.346 46.474C170.172 46.4586 170.051 46.3723 169.982 46.3027C169.856 46.1772 169.793 46.0033 169.809 45.8268L170.102 42.612C170.129 42.3035 170.382 42.0717 170.743 42.0717C170.745 42.0717 170.747 42.0717 170.749 42.0717C171.077 42.1019 171.32 42.3924 171.289 42.7195L170.996 45.9344ZM181.148 40.0624L177.932 39.77C177.364 39.7198 176.822 39.9181 176.43 40.3142C176.119 40.6246 175.925 41.0374 175.885 41.476C175.839 41.9777 175.992 42.4671 176.314 42.8541C176.636 43.2412 177.09 43.4788 177.591 43.5239L180.805 43.8156C180.864 43.8208 180.922 43.8233 180.979 43.8233C181.958 43.8233 182.763 43.0873 182.853 42.1097C182.946 41.0735 182.181 40.1558 181.148 40.0624ZM180.98 42.5347L177.709 42.2404C177.55 42.2262 177.405 42.1509 177.304 42.0285C177.202 41.9068 177.154 41.7516 177.168 41.5919C177.184 41.4148 177.27 41.295 177.342 41.2242C177.451 41.1141 177.597 41.0529 177.804 41.0529C177.808 41.0529 177.813 41.0529 177.817 41.0529L181.033 41.3452C181.359 41.3749 181.602 41.666 181.572 41.9918C181.543 42.3009 181.289 42.5347 180.98 42.5347ZM174.552 34.2832L177.765 34.5749C177.824 34.5801 177.882 34.5826 177.94 34.5826C178.918 34.5826 179.723 33.8466 179.814 32.869C179.907 31.8341 179.141 30.9164 178.109 30.8223L174.892 30.53C174.322 30.4791 173.783 30.6781 173.39 31.0741C173.079 31.3846 172.885 31.7974 172.845 32.2359C172.799 32.7376 172.952 33.227 173.274 33.6141C173.597 34.0005 174.051 34.2381 174.552 34.2832ZM174.301 31.9841C174.411 31.874 174.556 31.8128 174.764 31.8128C174.768 31.8128 174.773 31.8128 174.776 31.8128L177.993 32.1052C178.319 32.1348 178.561 32.4259 178.532 32.7518C178.503 33.0609 178.25 33.2946 177.94 33.2946L174.669 33.0003C174.51 32.9862 174.366 32.9108 174.264 32.7885C174.162 32.6667 174.114 32.5115 174.129 32.3518C174.144 32.1747 174.23 32.055 174.301 31.9841ZM162.074 36.5526L159.594 38.6199C159.162 38.9792 158.915 39.5066 158.915 40.0676C158.915 40.5048 159.069 40.9324 159.352 41.2738C159.712 41.7046 160.24 41.9519 160.8 41.9519C161.24 41.9519 161.668 41.7967 162.005 41.5153L164.486 39.4487C165.284 38.7841 165.392 37.5933 164.728 36.7935C164.086 36.0252 162.845 35.9112 162.074 36.5526ZM163.662 38.4589L161.182 40.5254C161.045 40.6401 160.9 40.6639 160.801 40.6639C160.623 40.6639 160.455 40.5853 160.343 40.4507C160.252 40.3406 160.203 40.2079 160.203 40.0676C160.203 39.8905 160.281 39.7237 160.419 39.6097L162.899 37.5424C163.036 37.4278 163.182 37.404 163.281 37.404C163.458 37.404 163.625 37.4819 163.738 37.6178C163.948 37.8715 163.915 38.2489 163.662 38.4589ZM190.63 41.7915L188.151 43.8588C187.72 44.2175 187.472 44.7449 187.472 45.3065C187.472 45.7457 187.627 46.1733 187.91 46.5127C188.269 46.9435 188.796 47.1908 189.357 47.1908C189.796 47.1908 190.225 47.0362 190.563 46.7542L193.043 44.6876C193.841 44.023 193.95 42.8322 193.284 42.0337C192.644 41.2641 191.402 41.1495 190.63 41.7915ZM192.218 43.6978L189.739 45.7644C189.601 45.879 189.456 45.9028 189.357 45.9028C189.18 45.9028 189.013 45.8242 188.899 45.6884C188.807 45.5789 188.76 45.4469 188.76 45.3065C188.76 45.1294 188.838 44.9626 188.975 44.8486L191.455 42.7814C191.593 42.6667 191.738 42.6429 191.837 42.6429C192.014 42.6429 192.181 42.7208 192.294 42.8574C192.505 43.1111 192.472 43.4878 192.218 43.6978ZM182.745 26.7561C183.185 26.7561 183.613 26.6016 183.951 26.3195L186.432 24.2529C187.229 23.5883 187.337 22.3976 186.673 21.5984C186.032 20.8301 184.789 20.7174 184.019 21.3569L181.538 23.4248C181.108 23.7847 180.86 24.3122 180.86 24.8725C180.86 25.3097 181.015 25.7373 181.298 26.0787C181.657 26.5095 182.185 26.7561 182.745 26.7561ZM182.363 24.4139L184.843 22.3467C184.981 22.2321 185.126 22.2082 185.225 22.2082C185.402 22.2082 185.57 22.2868 185.683 22.4227C185.894 22.6758 185.859 23.0532 185.608 23.2631L183.127 25.3297C182.989 25.4443 182.844 25.4682 182.745 25.4682C182.568 25.4682 182.4 25.3902 182.288 25.2556C182.197 25.1455 182.148 25.0128 182.148 24.8725C182.148 24.6947 182.227 24.5279 182.363 24.4139ZM213.423 38.1439C213.951 37.4607 213.958 36.4779 213.383 35.7863C212.852 35.1481 211.911 34.9677 211.164 35.2891C210.382 34.676 209.476 34.2143 208.475 33.9335C208.383 30.2878 206.789 27.0163 204.285 24.7057C204.408 23.8601 203.946 23.0062 203.118 22.6796L200.115 21.4934C199.597 21.288 199 21.3285 198.52 21.5913C198.51 21.5964 198.503 21.6042 198.494 21.6087C197.616 21.3987 196.706 21.2757 195.769 21.2545C195.111 19.497 193.554 18.1807 191.658 17.8619C191.569 17.8155 191.472 17.7827 191.365 17.7827C191.158 17.7827 190.955 17.7692 190.753 17.7518C190.62 16.921 189.945 16.25 189.071 16.1708L186.538 15.9409C185.069 14.6329 184.14 12.746 184.14 10.644C184.14 10.2879 183.852 10 183.496 10C175.442 10 168.858 16.3904 168.535 24.3663C167.568 24.4551 166.66 24.7443 165.852 25.1945C165.365 25.1513 164.863 25.2827 164.48 25.6027C164.093 25.9254 163.854 26.3794 163.809 26.8804C163.807 26.8978 163.811 26.9152 163.81 26.932C162.942 28.0255 162.407 29.3875 162.344 30.8726C158.062 32.0273 155 35.9717 155 40.4514C155 44.7533 157.693 48.7924 161.446 50.2176L167.525 73.9154C167.543 73.9869 167.573 74.0532 167.613 74.1124C167.629 74.1363 167.652 74.153 167.671 74.1749C167.698 74.2065 167.723 74.2406 167.756 74.2664C167.783 74.2863 167.815 74.2979 167.845 74.314C167.877 74.3307 167.906 74.3533 167.94 74.3649C168.005 74.3868 168.076 74.3997 168.148 74.3997H201.124C201.196 74.3997 201.268 74.3868 201.334 74.3642C201.368 74.352 201.397 74.3301 201.429 74.3134C201.459 74.2973 201.49 74.2857 201.517 74.2657C201.55 74.2399 201.575 74.2058 201.603 74.1743C201.621 74.153 201.644 74.1356 201.66 74.1118C201.7 74.0525 201.73 73.9869 201.748 73.9147L207.847 50.1429C211.597 49.2484 214.274 45.9015 214.274 41.9989C214.274 40.6014 213.968 39.2941 213.423 38.1439ZM211.061 36.9448L211.554 36.5339C211.691 36.4193 211.837 36.3955 211.935 36.3955C212.112 36.3955 212.28 36.4734 212.393 36.6099C212.604 36.8637 212.569 37.2404 212.318 37.4504L211.8 37.8812L209.837 39.5169C209.7 39.6316 209.554 39.6554 209.456 39.6554C209.278 39.6554 209.111 39.5768 208.997 39.4416C208.997 39.4416 208.997 39.4409 208.997 39.4409L208.996 39.4403C208.906 39.3321 208.858 39.1995 208.858 39.0591C208.858 38.882 208.936 38.7152 209.073 38.6012L209.874 37.9334L211.061 36.9448C211.061 36.9442 211.061 36.9442 211.061 36.9448ZM198.867 23.0268C198.933 22.8593 199.048 22.7698 199.134 22.7228C199.225 22.6739 199.323 22.6481 199.422 22.6481C199.496 22.6481 199.57 22.6623 199.642 22.69L202.645 23.8762C202.949 23.9973 203.099 24.345 202.979 24.6516C202.888 24.8795 202.671 25.0277 202.425 25.0277C202.357 25.0277 202.289 25.0135 202.224 24.9884C202.218 24.9864 202.211 24.9877 202.206 24.9852L200.506 24.3128L199.205 23.7989C199.13 23.7693 199.064 23.7268 199.008 23.6727C198.952 23.6192 198.907 23.5542 198.875 23.4814C198.811 23.3359 198.809 23.1742 198.867 23.0268ZM185.09 17.7003C185.09 17.6996 185.09 17.6996 185.09 17.699C185.106 17.5232 185.192 17.4021 185.261 17.3332L185.262 17.3325C185.374 17.2205 185.524 17.1587 185.683 17.1587L185.721 17.1619C185.723 17.1619 185.724 17.1612 185.726 17.1612C185.73 17.1612 185.735 17.1612 185.739 17.1612L186.01 17.1857C186.012 17.187 186.013 17.1876 186.014 17.1883L188.954 17.4536C189.281 17.4832 189.523 17.7737 189.493 18.1015C189.465 18.41 189.21 18.6431 188.902 18.6431L188.846 18.6405L185.698 18.3546L185.631 18.3481C185.472 18.334 185.328 18.2586 185.226 18.1369C185.124 18.0152 185.075 17.86 185.09 17.7003ZM182.886 11.3189C183.032 13.1215 183.748 14.7649 184.861 16.0703C184.676 16.1611 184.5 16.2725 184.35 16.4232C184.038 16.7356 183.845 17.149 183.807 17.5843C183.761 18.086 183.914 18.5755 184.236 18.9619C184.558 19.3489 185.012 19.5865 185.513 19.6316L188.727 19.924C188.785 19.9291 188.843 19.9317 188.901 19.9317C189.579 19.9317 190.169 19.5724 190.5 19.0282C190.525 19.0308 190.552 19.0301 190.578 19.0321C190.641 19.052 190.704 19.072 190.773 19.072C193.007 19.072 194.824 20.8887 194.824 23.1227C194.824 25.7393 189.914 27.4298 182.315 27.4298C174.221 27.4298 169.806 25.8108 169.806 24.9794C169.807 17.6346 175.621 11.6409 182.886 11.3189ZM165.304 26.5926C165.442 26.4779 165.587 26.4541 165.686 26.4541C165.818 26.4541 165.938 26.5095 166.041 26.5881C166.075 26.6145 166.115 26.6331 166.144 26.6679L166.145 26.6686L168.211 29.1486C168.313 29.271 168.361 29.4262 168.347 29.5846C168.333 29.743 168.257 29.8866 168.135 29.9884C168.134 29.9884 168.134 29.989 168.134 29.989C168.133 29.9903 168.13 29.9903 168.129 29.9916C168.07 30.0399 168.003 30.0727 167.931 30.0953C167.928 30.0959 167.926 30.0959 167.922 30.0966C167.868 30.1133 167.811 30.1268 167.752 30.1268C167.736 30.1268 167.722 30.1178 167.707 30.1165C167.69 30.1152 167.674 30.1075 167.657 30.1049C167.595 30.0946 167.536 30.0843 167.481 30.056C167.41 30.0212 167.346 29.9742 167.295 29.9124L167.294 29.9117C167.294 29.9111 167.293 29.9111 167.293 29.9111L165.916 28.2579L165.227 27.4311C165.202 27.4001 165.189 27.3628 165.171 27.328C165.115 27.2263 165.08 27.1149 165.091 26.997C165.106 26.8379 165.182 26.6943 165.304 26.5926ZM163.617 31.1662C163.617 30.1597 163.89 29.2181 164.361 28.4035L166.306 30.7373C166.666 31.1675 167.193 31.4142 167.753 31.4142C168.194 31.4142 168.622 31.259 168.959 30.9775C169.346 30.6555 169.584 30.2022 169.63 29.7005C169.675 29.1995 169.523 28.7107 169.201 28.3243L167.241 25.9724C167.7 25.8017 168.185 25.689 168.691 25.6459C169.943 28.0538 177.926 28.7165 182.316 28.7165C190.955 28.7165 196.113 26.6248 196.113 23.1214C196.113 22.9308 196.102 22.7434 196.082 22.5579C196.603 22.5856 197.116 22.6404 197.618 22.7331C197.499 23.1498 197.518 23.5903 197.693 23.994C197.893 24.4558 198.262 24.8126 198.731 24.9967L201.731 26.183C201.954 26.2712 202.187 26.3157 202.425 26.3157C202.886 26.3157 203.313 26.1476 203.646 25.8623C205.829 27.9888 207.192 30.9505 207.201 34.2297C207.107 35.1371 205.373 36.5198 200.769 37.4562C196.373 38.35 190.748 38.5877 184.927 38.1227C172.125 37.1007 163.42 33.663 163.614 31.2171C163.615 31.2081 163.61 31.2004 163.611 31.1914C163.612 31.1823 163.617 31.1753 163.617 31.1662ZM168.648 73.1117L162.788 50.2691L165.915 49.8093L170.658 73.1117H168.648ZM171.972 73.1117L167.237 49.8486L170.481 50.3039L173.992 73.1117H171.972ZM175.296 73.1117L171.782 50.282L174.934 49.8196L177.327 73.1117H175.296ZM178.623 73.1117L176.231 49.8383L179.491 50.3045L180.661 73.1117H178.623ZM183.992 73.1117H181.951L180.78 50.2852L183.993 49.8267L183.992 73.1117ZM187.322 73.1117H185.279L185.281 49.8247L188.494 50.2743L187.322 73.1117ZM188.611 73.1117L189.781 50.3161L193.063 49.8409L190.65 73.1117H188.611ZM191.946 73.1117L194.362 49.8177L197.492 50.2691L193.977 73.1117H191.946ZM195.28 73.1117L198.789 50.3168L201.977 49.8531L197.299 73.1117H195.28ZM200.625 73.1117H198.613L203.304 49.7938L206.509 50.1732L200.625 73.1117ZM207.235 48.9624L202.864 48.4447C202.808 48.4376 202.752 48.4389 202.696 48.4472L202.662 48.4524C202.662 48.4524 202.66 48.4524 202.66 48.4524L198.309 49.0848L193.882 48.4466C193.877 48.446 193.872 48.4472 193.867 48.4466C193.863 48.446 193.861 48.444 193.857 48.4434C193.846 48.4427 193.838 48.4472 193.827 48.4466C193.784 48.4447 193.74 48.4408 193.698 48.4472L189.292 49.0854L184.726 48.4466C184.706 48.4434 184.686 48.4472 184.668 48.4466C184.656 48.446 184.648 48.4402 184.636 48.4402C184.624 48.4402 184.616 48.446 184.605 48.4466C184.585 48.4479 184.565 48.444 184.545 48.4466L180.066 49.0854L175.597 48.4466C175.556 48.4408 175.515 48.4447 175.475 48.4472C175.462 48.4472 175.452 48.4421 175.44 48.4434C175.435 48.444 175.432 48.4466 175.428 48.4472C175.422 48.4479 175.417 48.4466 175.412 48.4472L171.066 49.0854L166.515 48.4466C166.454 48.4376 166.394 48.4382 166.332 48.4472L162.058 49.0745C158.707 47.8921 156.287 44.2935 156.287 40.4514C156.287 36.6132 158.868 33.2238 162.504 32.1606C163.982 35.8352 174.619 38.5915 184.825 39.4068C186.802 39.564 188.759 39.6419 190.657 39.6419C194.456 39.6419 198.018 39.3295 201.026 38.7171C203.896 38.1343 207.273 37.0665 208.23 35.2015C208.902 35.4024 209.521 35.7019 210.074 36.0896L208.249 37.6107C207.817 37.9701 207.57 38.4975 207.57 39.0584C207.57 39.497 207.725 39.9246 208.007 40.2646C208.367 40.6955 208.894 40.9427 209.456 40.9427C209.895 40.9427 210.323 40.7875 210.661 40.5061L212.417 39.0436C212.786 39.9394 212.987 40.9389 212.987 41.9989C212.986 45.4095 210.572 48.3236 207.235 48.9624Z" fill="#6A2C70"/>
<path d="M9.12 66.72C7.96 66.52 6.88 66.24 5.88 65.88C4.88 65.48 4.02 64.98 3.3 64.38C2.78 63.9 2.4 63.34 2.16 62.7C1.92 62.02 1.8 61.3 1.8 60.54C1.8 59.26 2.02 57.94 2.46 56.58C2.9 55.18 3.28 53.98 3.6 52.98C4.36 50.74 5.26 48.36 6.3 45.84C7.38 43.32 8.46 40.88 9.54 38.52C10.66 36.16 11.66 34.06 12.54 32.22C13.42 30.38 14.08 29.04 14.52 28.2C14.68 27.88 14.82 27.58 14.94 27.3C15.1 27.02 15.26 26.76 15.42 26.52C15.02 26.56 14.64 26.62 14.28 26.7C13.92 26.74 13.58 26.78 13.26 26.82C11.5 27.06 9.66 27.46 7.74 28.02C5.86 28.54 4.16 29.2 2.64 30C1.12 30.8 0.02 31.78 -0.66 32.94C-0.7 33.06 -0.78 33.12 -0.9 33.12C-0.98 33.12 -1.04 33.04 -1.08 32.88C-1.16 32.72 -1.18 32.54 -1.14 32.34C-0.74 31.3 -0.24 30.3 0.36 29.34C0.96 28.38 1.54 27.62 2.1 27.06C2.98 26.14 4.18 25.48 5.7 25.08C7.22 24.68 8.78 24.42 10.38 24.3C12.02 24.18 13.42 24.12 14.58 24.12H26.88C30.92 24.12 34.16 24.88 36.6 26.4C39.08 27.92 40.88 29.92 42 32.4C43.12 34.88 43.68 37.56 43.68 40.44C43.68 41.12 43.66 41.8 43.62 42.48C43.58 43.16 43.5 43.84 43.38 44.52C42.78 48.16 41.6 51.4 39.84 54.24C38.12 57.04 35.98 59.4 33.42 61.32C30.86 63.24 27.98 64.7 24.78 65.7C21.62 66.66 18.3 67.14 14.82 67.14C13.9 67.14 12.96 67.1 12 67.02C11.04 66.98 10.08 66.88 9.12 66.72ZM10.62 64.38C11.14 64.42 11.66 64.48 12.18 64.56C12.7 64.6 13.22 64.62 13.74 64.62C16.58 64.62 19.26 64.12 21.78 63.12C24.34 62.12 26.64 60.72 28.68 58.92C30.76 57.12 32.52 55.04 33.96 52.68C35.4 50.32 36.44 47.76 37.08 45C37.52 43.16 37.74 41.4 37.74 39.72C37.74 37.92 37.46 36.2 36.9 34.56C36.38 32.88 35.52 31.38 34.32 30.06C33.24 28.86 31.8 27.94 30 27.3C28.2 26.62 26.54 26.22 25.02 26.1C24.66 26.06 24.3 26.04 23.94 26.04C23.58 26 23.22 25.98 22.86 25.98C22.14 26.94 21.4 28.08 20.64 29.4C19.88 30.68 19.14 32 18.42 33.36C17.74 34.72 17.14 35.96 16.62 37.08C15.26 40 13.98 42.92 12.78 45.84C11.58 48.76 10.5 51.74 9.54 54.78C9.26 55.66 8.98 56.66 8.7 57.78C8.42 58.9 8.28 59.94 8.28 60.9C8.28 61.78 8.44 62.56 8.76 63.24C9.12 63.88 9.74 64.26 10.62 64.38ZM57.7777 37.2C56.7377 36.84 56.2177 36.16 56.2177 35.16C56.2177 34.24 56.5777 33.3 57.2977 32.34C58.0577 31.34 58.8777 30.7 59.7577 30.42C59.9577 30.34 60.1177 30.3 60.2377 30.3C60.3977 30.3 60.5577 30.3 60.7177 30.3C61.3977 30.3 61.9577 30.5 62.3977 30.9C62.8377 31.3 63.0577 31.76 63.0577 32.28C63.0577 33 62.6777 33.6 61.9177 34.08C61.3177 34 60.7377 34.14 60.1777 34.5C59.6177 34.86 59.1177 35.3 58.6777 35.82C58.2777 36.34 57.9777 36.8 57.7777 37.2ZM47.4577 66.36C46.9377 66.36 46.4377 66.24 45.9577 66C45.4777 65.8 45.0777 65.38 44.7577 64.74C44.3177 63.78 44.0977 62.64 44.0977 61.32C44.0977 59.88 44.3177 58.28 44.7577 56.52C45.1977 54.72 45.7777 52.88 46.4977 51C46.7777 50.32 47.1377 49.48 47.5777 48.48C48.0177 47.48 48.5377 46.48 49.1377 45.48C49.7377 44.48 50.4177 43.66 51.1777 43.02C51.9777 42.34 52.8377 42 53.7577 42C54.1977 42 54.8177 42.02 55.6177 42.06C56.4177 42.1 56.9977 42.1 57.3577 42.06C57.1177 42.22 56.8377 42.54 56.5177 43.02C56.1977 43.5 55.8977 44 55.6177 44.52C55.3377 45 55.1177 45.38 54.9577 45.66C53.9177 47.74 52.9377 49.8 52.0177 51.84C51.0977 53.88 50.3977 55.84 49.9177 57.72C49.8377 58.04 49.7777 58.36 49.7377 58.68C49.6977 59 49.6777 59.3 49.6777 59.58C49.6777 60.74 50.0577 61.32 50.8177 61.32C51.1377 61.32 51.4777 61.24 51.8377 61.08C52.2377 60.88 52.6977 60.58 53.2177 60.18C54.1377 59.46 54.9377 58.64 55.6177 57.72C56.4177 56.68 57.1777 55.58 57.8977 54.42C58.6177 53.22 59.2377 52.12 59.7577 51.12C59.9577 50.8 60.0977 50.64 60.1777 50.64C60.4177 50.64 60.5377 50.98 60.5377 51.66C60.5377 51.98 60.4777 52.36 60.3577 52.8C60.2777 53.2 60.1377 53.58 59.9377 53.94C59.3777 54.9 58.7177 55.96 57.9577 57.12C57.1977 58.28 56.4177 59.4 55.6177 60.48C55.0577 61.24 54.3177 62.08 53.3977 63C52.4777 63.92 51.4977 64.72 50.4577 65.4C49.4177 66.04 48.4177 66.36 47.4577 66.36ZM60.4055 66.42C59.3655 66.42 58.5255 65.86 57.8855 64.74C57.2455 63.62 57.0055 62.14 57.1655 60.3C57.2455 59.14 57.5055 57.68 57.9455 55.92C58.4255 54.12 59.0255 52.32 59.7455 50.52C60.4655 48.68 61.2255 47.12 62.0255 45.84C63.0655 44.2 64.2255 43.14 65.5055 42.66C66.8255 42.18 68.4655 41.94 70.4255 41.94C70.5855 41.94 70.6655 42.02 70.6655 42.18C70.6655 42.34 70.5455 42.54 70.3055 42.78C69.7455 43.26 69.0855 44.14 68.3255 45.42C67.5655 46.7 66.8255 48.1 66.1055 49.62C65.4255 51.14 64.8255 52.54 64.3055 53.82C63.9055 54.86 63.5255 55.94 63.1655 57.06C62.8455 58.18 62.6855 59.18 62.6855 60.06C62.6855 60.78 62.8255 61.36 63.1055 61.8C63.4255 62.24 63.9655 62.46 64.7255 62.46C65.5255 62.42 66.4055 61.84 67.3655 60.72C68.3255 59.6 69.2455 58.22 70.1255 56.58C71.0055 54.94 71.7255 53.34 72.2855 51.78C72.2055 51.34 72.1255 50.88 72.0455 50.4C72.0055 49.92 71.9855 49.42 71.9855 48.9C71.9855 48.18 72.0455 47.44 72.1655 46.68C72.3255 45.88 72.5455 45.1 72.8255 44.34C73.3455 43.02 74.0655 42.24 74.9855 42C75.1455 41.96 75.2855 41.94 75.4055 41.94C75.5655 41.9 75.7255 41.88 75.8855 41.88C76.6455 41.88 77.1455 42.16 77.3855 42.72C77.6655 43.24 77.8055 43.86 77.8055 44.58C77.8055 45.3 77.7255 46.02 77.5655 46.74C77.4055 47.42 77.2655 47.94 77.1455 48.3C76.8655 49.06 76.5455 49.8 76.1855 50.52C75.8255 51.2 75.4655 51.88 75.1055 52.56C75.1855 53.8 75.5055 54.76 76.0655 55.44C76.6655 56.12 77.3655 56.46 78.1655 56.46C79.1655 56.46 80.1655 56.02 81.1655 55.14C81.7255 54.66 82.2255 54.06 82.6655 53.34C83.1455 52.58 83.5655 51.88 83.9255 51.24C84.1255 50.88 84.2655 50.8 84.3455 51C84.4255 51.2 84.4655 51.52 84.4655 51.96C84.4655 52.32 84.4255 52.72 84.3455 53.16C84.3055 53.56 84.2055 53.88 84.0455 54.12C83.4855 55.12 82.8455 55.96 82.1255 56.64C81.4055 57.28 80.6455 57.76 79.8455 58.08C79.2055 58.32 78.5455 58.44 77.8655 58.44C76.9455 58.44 76.0855 58.18 75.2855 57.66C74.5255 57.1 73.9255 56.26 73.4855 55.14C72.6455 56.38 71.8655 57.52 71.1455 58.56C70.4655 59.56 69.9455 60.28 69.5855 60.72C68.3855 62.24 67.0055 63.58 65.4455 64.74C63.9255 65.86 62.2455 66.42 60.4055 66.42ZM94.0472 37.2C93.0072 36.84 92.4872 36.16 92.4872 35.16C92.4872 34.24 92.8472 33.3 93.5672 32.34C94.3272 31.34 95.1472 30.7 96.0272 30.42C96.2272 30.34 96.3872 30.3 96.5072 30.3C96.6672 30.3 96.8272 30.3 96.9872 30.3C97.6672 30.3 98.2272 30.5 98.6672 30.9C99.1072 31.3 99.3272 31.76 99.3272 32.28C99.3272 33 98.9472 33.6 98.1872 34.08C97.5872 34 97.0072 34.14 96.4472 34.5C95.8872 34.86 95.3872 35.3 94.9472 35.82C94.5472 36.34 94.2472 36.8 94.0472 37.2ZM83.7272 66.36C83.2072 66.36 82.7072 66.24 82.2272 66C81.7472 65.8 81.3472 65.38 81.0272 64.74C80.5872 63.78 80.3672 62.64 80.3672 61.32C80.3672 59.88 80.5872 58.28 81.0272 56.52C81.4672 54.72 82.0472 52.88 82.7672 51C83.0472 50.32 83.4072 49.48 83.8472 48.48C84.2872 47.48 84.8072 46.48 85.4072 45.48C86.0072 44.48 86.6872 43.66 87.4472 43.02C88.2472 42.34 89.1072 42 90.0272 42C90.4672 42 91.0872 42.02 91.8872 42.06C92.6872 42.1 93.2672 42.1 93.6272 42.06C93.3872 42.22 93.1072 42.54 92.7872 43.02C92.4672 43.5 92.1672 44 91.8872 44.52C91.6072 45 91.3872 45.38 91.2272 45.66C90.1872 47.74 89.2072 49.8 88.2872 51.84C87.3672 53.88 86.6672 55.84 86.1872 57.72C86.1072 58.04 86.0472 58.36 86.0072 58.68C85.9672 59 85.9472 59.3 85.9472 59.58C85.9472 60.74 86.3272 61.32 87.0872 61.32C87.4072 61.32 87.7472 61.24 88.1072 61.08C88.5072 60.88 88.9672 60.58 89.4872 60.18C90.4072 59.46 91.2072 58.64 91.8872 57.72C92.6872 56.68 93.4472 55.58 94.1672 54.42C94.8872 53.22 95.5072 52.12 96.0272 51.12C96.2272 50.8 96.3672 50.64 96.4472 50.64C96.6872 50.64 96.8072 50.98 96.8072 51.66C96.8072 51.98 96.7472 52.36 96.6272 52.8C96.5472 53.2 96.4072 53.58 96.2072 53.94C95.6472 54.9 94.9872 55.96 94.2272 57.12C93.4672 58.28 92.6872 59.4 91.8872 60.48C91.3272 61.24 90.5872 62.08 89.6672 63C88.7472 63.92 87.7672 64.72 86.7272 65.4C85.6872 66.04 84.6872 66.36 83.7272 66.36ZM109.875 66.36C108.515 66.36 107.575 65.96 107.055 65.16C106.575 64.32 106.335 63.36 106.335 62.28C106.335 60.96 106.595 59.38 107.115 57.54C107.635 55.66 108.235 53.78 108.915 51.9C109.635 49.98 110.275 48.28 110.835 46.8C110.995 46.44 111.075 46.06 111.075 45.66C111.075 45.22 110.935 44.9 110.655 44.7C110.375 44.5 110.015 44.4 109.575 44.4C108.935 44.4 108.215 44.6 107.415 45C106.175 45.64 104.995 46.66 103.875 48.06C102.755 49.46 101.855 50.92 101.175 52.44C100.415 54.16 99.735 55.88 99.135 57.6C98.535 59.32 98.055 60.72 97.695 61.8C97.455 62.48 97.235 63.18 97.035 63.9C96.835 64.62 96.635 65.32 96.435 66H90.615C90.615 66 90.755 65.5 91.035 64.5C91.275 63.5 91.595 62.5 91.995 61.5C92.675 59.74 93.355 57.98 94.035 56.22C94.755 54.46 95.375 52.9 95.895 51.54C96.055 51.14 96.295 50.4 96.615 49.32C96.975 48.2 97.295 47.04 97.575 45.84C97.895 44.64 98.055 43.66 98.055 42.9C98.055 42.46 97.995 42.16 97.875 42C98.235 42 98.635 42 99.075 42C99.555 41.96 99.995 41.94 100.395 41.94C100.955 41.94 101.475 41.96 101.955 42C102.475 42.04 102.815 42.14 102.975 42.3C103.455 42.66 103.695 43.18 103.695 43.86C103.695 44.34 103.595 44.82 103.395 45.3C103.235 45.78 103.115 46.18 103.035 46.5C103.595 45.98 104.175 45.48 104.775 45C105.375 44.52 106.295 43.9 107.535 43.14C108.255 42.7 109.155 42.34 110.235 42.06C111.315 41.78 112.295 41.64 113.175 41.64C115.455 41.64 116.595 42.7 116.595 44.82C116.595 45.18 116.555 45.58 116.475 46.02C116.435 46.46 116.315 46.94 116.115 47.46C115.915 48.1 115.595 48.98 115.155 50.1C114.715 51.22 114.255 52.42 113.775 53.7C113.335 54.94 112.955 56.12 112.635 57.24C112.315 58.36 112.155 59.26 112.155 59.94C112.155 60.9 112.515 61.38 113.235 61.38C113.875 61.38 114.675 60.98 115.635 60.18C116.555 59.42 117.355 58.6 118.035 57.72C118.875 56.68 119.635 55.58 120.315 54.42C121.035 53.22 121.655 52.12 122.175 51.12C122.375 50.8 122.515 50.64 122.595 50.64C122.835 50.64 122.955 50.98 122.955 51.66C122.955 51.98 122.895 52.36 122.775 52.8C122.695 53.2 122.555 53.58 122.355 53.94C121.795 54.9 121.135 55.96 120.375 57.12C119.615 58.28 118.835 59.4 118.035 60.48C117.475 61.24 116.735 62.08 115.815 63C114.895 63.92 113.915 64.72 112.875 65.4C111.835 66.04 110.835 66.36 109.875 66.36ZM134.028 65.16C132.188 66.12 130.248 66.6 128.208 66.6C126.488 66.6 124.888 66.18 123.408 65.34C121.928 64.5 120.928 63.16 120.408 61.32C120.168 60.48 120.048 59.6 120.048 58.68C120.048 57.16 120.308 55.6 120.828 54C121.388 52.36 122.108 50.86 122.988 49.5C124.348 47.38 126.068 45.62 128.148 44.22C130.228 42.82 132.528 42.12 135.048 42.12C136.928 42.12 138.388 42.6 139.428 43.56C140.468 44.52 140.988 45.64 140.988 46.92C140.988 48.44 140.468 49.78 139.428 50.94C138.428 52.06 137.108 52.92 135.468 53.52C134.668 53.8 133.808 54.02 132.888 54.18C132.008 54.3 131.168 54.36 130.368 54.36C128.728 54.36 127.468 54.14 126.588 53.7C125.828 55.66 125.448 57.46 125.448 59.1C125.448 60.58 125.788 61.8 126.468 62.76C127.148 63.68 128.228 64.14 129.708 64.14C130.948 64.14 132.168 63.8 133.368 63.12C134.608 62.44 135.748 61.6 136.788 60.6C137.868 59.6 138.768 58.64 139.488 57.72C140.048 57.04 140.528 56.4 140.928 55.8C141.328 55.2 141.748 54.52 142.188 53.76C142.628 52.96 143.148 51.98 143.748 50.82C143.908 50.54 144.048 50.4 144.168 50.4C144.408 50.4 144.528 50.72 144.528 51.36C144.528 51.72 144.468 52.12 144.348 52.56C144.268 52.96 144.108 53.38 143.868 53.82C143.308 54.82 142.628 55.92 141.828 57.12C141.068 58.28 140.288 59.4 139.488 60.48C138.768 61.44 137.948 62.32 137.028 63.12C136.108 63.92 135.108 64.6 134.028 65.16ZM128.568 52.38C128.768 52.5 128.988 52.58 129.228 52.62C129.468 52.66 129.708 52.68 129.948 52.68C130.748 52.68 131.548 52.5 132.348 52.14C133.148 51.74 133.828 51.34 134.388 50.94C135.308 50.3 136.088 49.54 136.728 48.66C137.368 47.78 137.728 46.78 137.808 45.66C137.848 45.18 137.728 44.78 137.448 44.46C137.208 44.1 136.768 43.92 136.128 43.92C135.808 43.92 135.408 43.98 134.928 44.1C134.288 44.26 133.648 44.56 133.008 45C132.368 45.44 131.748 45.96 131.148 46.56C130.948 46.76 130.588 47.16 130.068 47.76C129.588 48.32 129.128 48.96 128.688 49.68C128.248 50.36 128.028 50.96 128.028 51.48C128.028 51.92 128.208 52.22 128.568 52.38ZM238.573 66.72C237.413 66.52 236.333 66.24 235.333 65.88C234.333 65.48 233.473 64.98 232.753 64.38C232.233 63.9 231.853 63.34 231.613 62.7C231.373 62.02 231.253 61.3 231.253 60.54C231.253 59.26 231.473 57.94 231.913 56.58C232.353 55.18 232.733 53.98 233.053 52.98C233.813 50.74 234.713 48.36 235.753 45.84C236.833 43.32 237.913 40.88 238.993 38.52C240.113 36.16 241.113 34.06 241.993 32.22C242.873 30.38 243.533 29.04 243.973 28.2C244.133 27.88 244.273 27.58 244.393 27.3C244.553 27.02 244.713 26.76 244.873 26.52C244.473 26.56 244.093 26.62 243.733 26.7C243.373 26.74 243.033 26.78 242.713 26.82C240.953 27.06 239.113 27.46 237.193 28.02C235.313 28.54 233.613 29.2 232.093 30C230.573 30.8 229.473 31.78 228.793 32.94C228.753 33.06 228.673 33.12 228.553 33.12C228.473 33.12 228.413 33.04 228.373 32.88C228.293 32.72 228.273 32.54 228.313 32.34C228.713 31.3 229.213 30.3 229.813 29.34C230.413 28.38 230.993 27.62 231.553 27.06C232.433 26.14 233.633 25.48 235.153 25.08C236.673 24.68 238.233 24.42 239.833 24.3C241.473 24.18 242.873 24.12 244.033 24.12H256.333C260.373 24.12 263.613 24.88 266.053 26.4C268.533 27.92 270.333 29.92 271.453 32.4C272.573 34.88 273.133 37.56 273.133 40.44C273.133 41.12 273.113 41.8 273.073 42.48C273.033 43.16 272.953 43.84 272.833 44.52C272.233 48.16 271.053 51.4 269.293 54.24C267.573 57.04 265.433 59.4 262.873 61.32C260.313 63.24 257.433 64.7 254.233 65.7C251.073 66.66 247.753 67.14 244.273 67.14C243.353 67.14 242.413 67.1 241.453 67.02C240.493 66.98 239.533 66.88 238.573 66.72ZM240.073 64.38C240.593 64.42 241.113 64.48 241.633 64.56C242.153 64.6 242.673 64.62 243.193 64.62C246.033 64.62 248.713 64.12 251.233 63.12C253.793 62.12 256.093 60.72 258.133 58.92C260.213 57.12 261.973 55.04 263.413 52.68C264.853 50.32 265.893 47.76 266.533 45C266.973 43.16 267.193 41.4 267.193 39.72C267.193 37.92 266.913 36.2 266.353 34.56C265.833 32.88 264.973 31.38 263.773 30.06C262.693 28.86 261.253 27.94 259.453 27.3C257.653 26.62 255.993 26.22 254.473 26.1C254.113 26.06 253.753 26.04 253.393 26.04C253.033 26 252.673 25.98 252.313 25.98C251.593 26.94 250.853 28.08 250.093 29.4C249.333 30.68 248.593 32 247.873 33.36C247.193 34.72 246.593 35.96 246.073 37.08C244.713 40 243.433 42.92 242.233 45.84C241.033 48.76 239.953 51.74 238.993 54.78C238.713 55.66 238.433 56.66 238.153 57.78C237.873 58.9 237.733 59.94 237.733 60.9C237.733 61.78 237.893 62.56 238.213 63.24C238.573 63.88 239.193 64.26 240.073 64.38ZM288.071 65.16C286.231 66.12 284.291 66.6 282.251 66.6C280.531 66.6 278.931 66.18 277.451 65.34C275.971 64.5 274.971 63.16 274.451 61.32C274.211 60.48 274.091 59.6 274.091 58.68C274.091 57.16 274.351 55.6 274.871 54C275.431 52.36 276.151 50.86 277.031 49.5C278.391 47.38 280.111 45.62 282.191 44.22C284.271 42.82 286.571 42.12 289.091 42.12C290.971 42.12 292.431 42.6 293.471 43.56C294.511 44.52 295.031 45.64 295.031 46.92C295.031 48.44 294.511 49.78 293.471 50.94C292.471 52.06 291.151 52.92 289.511 53.52C288.711 53.8 287.851 54.02 286.931 54.18C286.051 54.3 285.211 54.36 284.411 54.36C282.771 54.36 281.511 54.14 280.631 53.7C279.871 55.66 279.491 57.46 279.491 59.1C279.491 60.58 279.831 61.8 280.511 62.76C281.191 63.68 282.271 64.14 283.751 64.14C284.991 64.14 286.211 63.8 287.411 63.12C288.651 62.44 289.791 61.6 290.831 60.6C291.911 59.6 292.811 58.64 293.531 57.72C294.091 57.04 294.571 56.4 294.971 55.8C295.371 55.2 295.791 54.52 296.231 53.76C296.671 52.96 297.191 51.98 297.791 50.82C297.951 50.54 298.091 50.4 298.211 50.4C298.451 50.4 298.571 50.72 298.571 51.36C298.571 51.72 298.511 52.12 298.391 52.56C298.311 52.96 298.151 53.38 297.911 53.82C297.351 54.82 296.671 55.92 295.871 57.12C295.111 58.28 294.331 59.4 293.531 60.48C292.811 61.44 291.991 62.32 291.071 63.12C290.151 63.92 289.151 64.6 288.071 65.16ZM282.611 52.38C282.811 52.5 283.031 52.58 283.271 52.62C283.511 52.66 283.751 52.68 283.991 52.68C284.791 52.68 285.591 52.5 286.391 52.14C287.191 51.74 287.871 51.34 288.431 50.94C289.351 50.3 290.131 49.54 290.771 48.66C291.411 47.78 291.771 46.78 291.851 45.66C291.891 45.18 291.771 44.78 291.491 44.46C291.251 44.1 290.811 43.92 290.171 43.92C289.851 43.92 289.451 43.98 288.971 44.1C288.331 44.26 287.691 44.56 287.051 45C286.411 45.44 285.791 45.96 285.191 46.56C284.991 46.76 284.631 47.16 284.111 47.76C283.631 48.32 283.171 48.96 282.731 49.68C282.291 50.36 282.071 50.96 282.071 51.48C282.071 51.92 282.251 52.22 282.611 52.38ZM301.979 67.2C300.619 67.2 299.339 67.02 298.139 66.66C296.939 66.3 295.959 65.74 295.199 64.98C294.439 64.22 294.059 63.26 294.059 62.1C294.059 61.22 294.319 60.36 294.839 59.52C295.399 58.68 296.179 58.26 297.179 58.26C297.619 58.26 298.019 58.36 298.379 58.56C298.739 58.76 298.979 59.02 299.099 59.34C299.059 59.38 298.959 59.52 298.799 59.76C298.639 59.96 298.539 60.1 298.499 60.18C298.139 60.9 297.959 61.56 297.959 62.16C297.959 63 298.259 63.68 298.859 64.2C299.499 64.72 300.319 64.98 301.319 64.98C302.639 64.94 303.779 64.48 304.739 63.6C305.739 62.68 306.239 61.6 306.239 60.36C306.239 59.64 306.079 58.96 305.759 58.32C305.239 57.24 304.539 56.32 303.659 55.56C302.819 54.76 301.999 53.96 301.199 53.16C300.439 52.36 299.879 51.4 299.519 50.28C299.359 49.76 299.279 49.12 299.279 48.36C299.279 47.6 299.379 46.86 299.579 46.14C299.779 45.38 300.079 44.74 300.479 44.22C301.039 43.46 301.879 42.76 302.999 42.12C304.399 41.36 306.039 40.98 307.919 40.98C309.159 40.98 310.259 41.14 311.219 41.46C311.939 41.7 312.559 42.1 313.079 42.66C313.639 43.18 313.919 43.88 313.919 44.76C313.919 45.76 313.599 46.72 312.959 47.64C312.359 48.52 311.479 49.06 310.319 49.26C309.599 49.34 308.959 49.22 308.399 48.9C307.839 48.54 307.639 47.88 307.799 46.92C308.879 46.68 309.659 46.24 310.139 45.6C310.379 45.24 310.499 44.88 310.499 44.52C310.499 43.84 310.219 43.38 309.659 43.14C309.139 42.86 308.639 42.72 308.159 42.72C307.559 42.72 306.979 42.8 306.419 42.96C305.899 43.08 305.419 43.3 304.979 43.62C304.099 44.38 303.659 45.26 303.659 46.26C303.659 46.42 303.679 46.6 303.719 46.8C303.799 47 303.859 47.2 303.899 47.4C304.099 47.92 304.399 48.4 304.799 48.84C305.199 49.28 305.599 49.66 305.999 49.98C306.999 50.7 308.019 51.48 309.059 52.32C310.139 53.16 310.939 54.18 311.459 55.38C311.859 56.22 312.059 57.08 312.059 57.96C312.059 59.16 311.759 60.26 311.159 61.26C310.559 62.22 309.879 62.98 309.119 63.54C310.439 62.98 311.719 62 312.959 60.6C314.239 59.16 315.339 57.74 316.259 56.34C316.859 55.42 317.399 54.56 317.879 53.76C318.399 52.92 318.919 52 319.439 51C319.599 50.72 319.739 50.58 319.859 50.58C320.099 50.58 320.219 50.92 320.219 51.6C320.219 51.88 320.159 52.22 320.039 52.62C319.959 53.02 319.819 53.42 319.619 53.82C318.899 55.02 318.219 56.14 317.579 57.18C316.939 58.18 316.159 59.28 315.239 60.48C313.399 62.92 311.439 64.66 309.359 65.7C307.279 66.7 304.819 67.2 301.979 67.2ZM324.654 67.2C323.294 67.2 322.014 67.02 320.814 66.66C319.614 66.3 318.634 65.74 317.874 64.98C317.114 64.22 316.734 63.26 316.734 62.1C316.734 61.22 316.994 60.36 317.514 59.52C318.074 58.68 318.854 58.26 319.854 58.26C320.294 58.26 320.694 58.36 321.054 58.56C321.414 58.76 321.654 59.02 321.774 59.34C321.734 59.38 321.634 59.52 321.474 59.76C321.314 59.96 321.214 60.1 321.174 60.18C320.814 60.9 320.634 61.56 320.634 62.16C320.634 63 320.934 63.68 321.534 64.2C322.174 64.72 322.994 64.98 323.994 64.98C325.314 64.94 326.454 64.48 327.414 63.6C328.414 62.68 328.914 61.6 328.914 60.36C328.914 59.64 328.754 58.96 328.434 58.32C327.914 57.24 327.214 56.32 326.334 55.56C325.494 54.76 324.674 53.96 323.874 53.16C323.114 52.36 322.554 51.4 322.194 50.28C322.034 49.76 321.954 49.12 321.954 48.36C321.954 47.6 322.054 46.86 322.254 46.14C322.454 45.38 322.754 44.74 323.154 44.22C323.714 43.46 324.554 42.76 325.674 42.12C327.074 41.36 328.714 40.98 330.594 40.98C331.834 40.98 332.934 41.14 333.894 41.46C334.614 41.7 335.234 42.1 335.754 42.66C336.314 43.18 336.594 43.88 336.594 44.76C336.594 45.76 336.274 46.72 335.634 47.64C335.034 48.52 334.154 49.06 332.994 49.26C332.274 49.34 331.634 49.22 331.074 48.9C330.514 48.54 330.314 47.88 330.474 46.92C331.554 46.68 332.334 46.24 332.814 45.6C333.054 45.24 333.174 44.88 333.174 44.52C333.174 43.84 332.894 43.38 332.334 43.14C331.814 42.86 331.314 42.72 330.834 42.72C330.234 42.72 329.654 42.8 329.094 42.96C328.574 43.08 328.094 43.3 327.654 43.62C326.774 44.38 326.334 45.26 326.334 46.26C326.334 46.42 326.354 46.6 326.394 46.8C326.474 47 326.534 47.2 326.574 47.4C326.774 47.92 327.074 48.4 327.474 48.84C327.874 49.28 328.274 49.66 328.674 49.98C329.674 50.7 330.694 51.48 331.734 52.32C332.814 53.16 333.614 54.18 334.134 55.38C334.534 56.22 334.734 57.08 334.734 57.96C334.734 59.16 334.434 60.26 333.834 61.26C333.234 62.22 332.554 62.98 331.794 63.54C333.114 62.98 334.394 62 335.634 60.6C336.914 59.16 338.014 57.74 338.934 56.34C339.534 55.42 340.074 54.56 340.554 53.76C341.074 52.92 341.594 52 342.114 51C342.274 50.72 342.414 50.58 342.534 50.58C342.774 50.58 342.894 50.92 342.894 51.6C342.894 51.88 342.834 52.22 342.714 52.62C342.634 53.02 342.494 53.42 342.294 53.82C341.574 55.02 340.894 56.14 340.254 57.18C339.614 58.18 338.834 59.28 337.914 60.48C336.074 62.92 334.114 64.66 332.034 65.7C329.954 66.7 327.494 67.2 324.654 67.2ZM353.93 65.16C352.09 66.12 350.15 66.6 348.11 66.6C346.39 66.6 344.79 66.18 343.31 65.34C341.83 64.5 340.83 63.16 340.31 61.32C340.07 60.48 339.95 59.6 339.95 58.68C339.95 57.16 340.21 55.6 340.73 54C341.29 52.36 342.01 50.86 342.89 49.5C344.25 47.38 345.97 45.62 348.05 44.22C350.13 42.82 352.43 42.12 354.95 42.12C356.83 42.12 358.29 42.6 359.33 43.56C360.37 44.52 360.89 45.64 360.89 46.92C360.89 48.44 360.37 49.78 359.33 50.94C358.33 52.06 357.01 52.92 355.37 53.52C354.57 53.8 353.71 54.02 352.79 54.18C351.91 54.3 351.07 54.36 350.27 54.36C348.63 54.36 347.37 54.14 346.49 53.7C345.73 55.66 345.35 57.46 345.35 59.1C345.35 60.58 345.69 61.8 346.37 62.76C347.05 63.68 348.13 64.14 349.61 64.14C350.85 64.14 352.07 63.8 353.27 63.12C354.51 62.44 355.65 61.6 356.69 60.6C357.77 59.6 358.67 58.64 359.39 57.72C359.95 57.04 360.43 56.4 360.83 55.8C361.23 55.2 361.65 54.52 362.09 53.76C362.53 52.96 363.05 51.98 363.65 50.82C363.81 50.54 363.95 50.4 364.07 50.4C364.31 50.4 364.43 50.72 364.43 51.36C364.43 51.72 364.37 52.12 364.25 52.56C364.17 52.96 364.01 53.38 363.77 53.82C363.21 54.82 362.53 55.92 361.73 57.12C360.97 58.28 360.19 59.4 359.39 60.48C358.67 61.44 357.85 62.32 356.93 63.12C356.01 63.92 355.01 64.6 353.93 65.16ZM348.47 52.38C348.67 52.5 348.89 52.58 349.13 52.62C349.37 52.66 349.61 52.68 349.85 52.68C350.65 52.68 351.45 52.5 352.25 52.14C353.05 51.74 353.73 51.34 354.29 50.94C355.21 50.3 355.99 49.54 356.63 48.66C357.27 47.78 357.63 46.78 357.71 45.66C357.75 45.18 357.63 44.78 357.35 44.46C357.11 44.1 356.67 43.92 356.03 43.92C355.71 43.92 355.31 43.98 354.83 44.1C354.19 44.26 353.55 44.56 352.91 45C352.27 45.44 351.65 45.96 351.05 46.56C350.85 46.76 350.49 47.16 349.97 47.76C349.49 48.32 349.03 48.96 348.59 49.68C348.15 50.36 347.93 50.96 347.93 51.48C347.93 51.92 348.11 52.22 348.47 52.38ZM371.354 66.42C370.074 66.42 369.154 65.88 368.594 64.8C368.154 63.84 367.934 62.7 367.934 61.38C367.934 59.9 368.154 58.26 368.594 56.46C369.034 54.66 369.634 52.82 370.394 50.94C370.674 50.26 371.034 49.4 371.474 48.36C371.954 47.32 372.514 46.3 373.154 45.3C372.594 45.78 371.934 46.18 371.174 46.5C370.414 46.78 369.674 46.92 368.954 46.92C368.394 46.92 367.934 46.84 367.574 46.68C367.254 47.32 366.734 48.36 366.014 49.8C365.294 51.24 364.334 52.94 363.134 54.9C363.014 55.1 362.894 55.1 362.774 54.9C362.694 54.66 362.654 54.34 362.654 53.94C362.654 53.62 362.694 53.28 362.774 52.92C362.854 52.56 362.974 52.22 363.134 51.9C363.534 51.14 363.934 50.36 364.334 49.56C364.734 48.72 365.094 47.98 365.414 47.34C365.734 46.7 365.914 46.3 365.954 46.14C365.234 45.78 364.694 45.28 364.334 44.64C363.974 43.96 363.794 43.3 363.794 42.66C363.794 42.02 363.934 41.44 364.214 40.92C364.534 40.4 364.994 40 365.594 39.72C365.954 39.6 366.294 39.54 366.614 39.54C367.494 39.54 368.214 39.82 368.774 40.38C368.734 40.54 368.694 40.72 368.654 40.92C368.654 41.08 368.654 41.26 368.654 41.46C368.654 42.7 369.154 43.62 370.154 44.22C371.154 44.82 372.234 45.04 373.394 44.88C373.954 44.08 374.594 43.38 375.314 42.78C376.034 42.18 376.814 41.88 377.654 41.88C378.094 41.88 378.714 41.9 379.514 41.94C380.354 41.98 380.954 41.98 381.314 41.94C381.074 42.1 380.794 42.42 380.474 42.9C380.154 43.38 379.854 43.88 379.574 44.4C379.294 44.92 379.074 45.32 378.914 45.6C377.834 47.68 376.834 49.76 375.914 51.84C374.994 53.88 374.294 55.84 373.814 57.72C373.734 58.08 373.654 58.42 373.574 58.74C373.534 59.02 373.514 59.32 373.514 59.64C373.514 60.84 373.914 61.44 374.714 61.44C375.274 61.44 376.074 61.04 377.114 60.24C378.034 59.48 378.854 58.64 379.574 57.72C380.374 56.68 381.134 55.56 381.854 54.36C382.574 53.16 383.194 52.06 383.714 51.06C383.914 50.74 384.054 50.58 384.134 50.58C384.374 50.58 384.494 50.94 384.494 51.66C384.494 51.94 384.454 52.28 384.374 52.68C384.294 53.08 384.154 53.46 383.954 53.82C383.354 54.82 382.674 55.92 381.914 57.12C381.154 58.28 380.374 59.42 379.574 60.54C379.054 61.26 378.314 62.08 377.354 63C376.434 63.92 375.434 64.72 374.354 65.4C373.314 66.08 372.314 66.42 371.354 66.42ZM386.412 66.36C385.252 66.36 384.372 65.9 383.772 64.98C383.492 64.54 383.292 64.02 383.172 63.42C383.052 62.82 382.992 62.2 382.992 61.56C382.992 60.92 383.032 60.28 383.112 59.64C383.192 58.96 383.292 58.3 383.412 57.66C383.612 56.62 383.832 55.68 384.072 54.84C384.352 53.96 384.632 53.12 384.912 52.32V52.26C384.592 52.86 384.192 53.52 383.712 54.24C383.232 54.92 382.892 55.42 382.692 55.74C382.412 56.18 382.192 56.4 382.032 56.4C381.872 56.4 381.792 56.22 381.792 55.86C381.792 55.06 382.032 54.18 382.512 53.22C382.832 52.58 383.272 51.76 383.832 50.76C384.392 49.72 384.972 48.6 385.572 47.4C386.172 46.2 386.692 45.04 387.132 43.92H383.112C382.912 43.92 382.872 43.76 382.992 43.44C383.112 43.12 383.292 42.82 383.532 42.54C383.772 42.22 383.952 42.06 384.072 42.06H388.632C389.072 41.02 389.572 39.9 390.132 38.7C390.732 37.5 391.392 36.38 392.112 35.34C392.872 34.26 393.692 33.38 394.572 32.7C395.452 32.02 396.392 31.68 397.392 31.68C397.832 31.68 398.372 31.68 399.012 31.68C399.692 31.68 400.112 31.66 400.272 31.62C399.432 32.18 398.452 33.3 397.332 34.98C396.212 36.62 394.992 38.98 393.672 42.06H399.732C399.852 42.06 399.812 42.22 399.612 42.54C399.412 42.82 399.152 43.12 398.832 43.44C398.552 43.76 398.272 43.92 397.992 43.92H392.832C392.312 45.24 391.732 46.68 391.092 48.24C390.492 49.8 389.932 51.34 389.412 52.86C388.932 54.34 388.572 55.7 388.332 56.94C388.172 57.7 388.092 58.4 388.092 59.04C388.092 60.56 388.572 61.32 389.532 61.32C390.172 61.32 390.932 61 391.812 60.36C392.692 59.72 393.572 58.84 394.452 57.72C395.252 56.68 396.012 55.56 396.732 54.36C397.492 53.16 398.132 52.06 398.652 51.06C398.812 50.78 398.952 50.64 399.072 50.64C399.312 50.64 399.432 50.96 399.432 51.6C399.432 51.92 399.372 52.3 399.252 52.74C399.172 53.14 399.012 53.54 398.772 53.94C398.212 54.9 397.552 55.96 396.792 57.12C396.032 58.24 395.252 59.36 394.452 60.48C393.892 61.2 393.152 62.02 392.232 62.94C391.352 63.86 390.392 64.66 389.352 65.34C388.352 66.02 387.372 66.36 386.412 66.36Z" fill="#6A2C70"/>
</g>
<defs>
<clipPath id="clip0_655_104">
<rect width="413.53" height="81.1658" fill="white"/>
</clipPath>
</defs>
</svg>
