<svg width="325" height="354" viewBox="0 0 325 354" fill="none" xmlns="http://www.w3.org/2000/svg">
<path d="M118.883 59.6251C120.857 61.9838 123.749 63.3362 126.817 63.3362C129.232 63.3362 131.58 62.4852 133.427 60.9421C137.802 57.2981 138.399 50.7692 134.755 46.3872L123.42 32.7892C119.91 28.5767 113.096 27.9481 108.872 31.4686C106.75 33.2341 105.44 35.72 105.193 38.4636C104.942 41.2107 105.779 43.8943 107.545 46.0129L118.883 59.6251ZM113.389 36.8958C114.144 36.2673 114.942 36.1331 115.483 36.1331C116.457 36.1331 117.375 36.5639 117.997 37.3125L129.328 50.9069C130.479 52.2946 130.292 54.3638 128.908 55.5185C127.58 56.6237 125.412 56.4259 124.303 55.1018L112.968 41.4932C112.411 40.8258 112.146 39.9748 112.223 39.1062C112.305 38.2411 112.718 37.4537 113.389 36.8958ZM267.924 174.504C264.407 170.291 257.589 169.67 253.376 173.183C251.251 174.952 249.944 177.442 249.697 180.189C249.446 182.932 250.283 185.612 252.049 187.727L263.383 201.336C265.354 203.698 268.246 205.051 271.318 205.051C273.733 205.051 276.085 204.2 277.931 202.657C280.057 200.891 281.36 198.405 281.611 195.655C281.858 192.908 281.024 190.227 279.259 188.109L267.924 174.504ZM273.412 197.229C272.663 197.854 271.861 197.985 271.318 197.985C270.347 197.985 269.429 197.558 268.807 196.813L257.472 183.204C256.915 182.537 256.65 181.689 256.727 180.824C256.805 179.956 257.222 179.165 257.893 178.607C258.648 177.978 259.446 177.848 259.987 177.848C260.958 177.848 261.879 178.275 262.501 179.02L273.832 192.621C274.39 193.292 274.654 194.143 274.577 195.012C274.499 195.881 274.086 196.668 273.412 197.229ZM206.749 145.083C208.719 147.445 211.611 148.801 214.687 148.801C217.106 148.801 219.457 147.95 221.301 146.404C225.676 142.767 226.272 136.238 222.628 131.852L211.294 118.254C207.784 114.042 200.962 113.417 196.749 116.93C194.624 118.696 193.317 121.178 193.066 123.925C192.816 126.672 193.649 129.356 195.418 131.478L206.749 145.083ZM201.262 122.361C202.018 121.732 202.816 121.598 203.356 121.598C204.33 121.598 205.248 122.029 205.87 122.778L217.201 136.372C218.352 137.76 218.165 139.825 216.777 140.984C216.029 141.609 215.231 141.739 214.687 141.739C213.716 141.739 212.801 141.312 212.176 140.563L200.842 126.958C200.284 126.287 200.019 125.436 200.097 124.571C200.174 123.703 200.591 122.922 201.262 122.361ZM246.484 135.157C246.802 135.186 247.119 135.2 247.434 135.2C252.804 135.2 257.222 131.16 257.713 125.807L259.316 108.184C259.835 102.517 255.647 97.4778 249.969 96.9516C244.228 96.4502 239.263 100.635 238.74 106.305L237.137 123.932C236.862 126.997 237.946 130.002 240.128 132.181C241.837 133.893 244.1 134.949 246.484 135.157ZM245.771 106.948C245.922 105.257 247.307 103.985 249.288 103.985C249.298 103.985 249.309 103.985 249.319 103.985C251.117 104.151 252.444 105.744 252.278 107.538L250.675 125.165C250.52 126.859 249.129 128.138 247.43 128.138L247.112 128.124C246.156 128.039 245.492 127.566 245.114 127.184C244.425 126.496 244.079 125.542 244.168 124.575L245.771 106.948ZM86.9976 168.815C81.2597 168.31 76.288 172.498 75.769 178.169L74.1659 195.796C73.8904 198.861 74.9745 201.866 77.1566 204.044C78.8692 205.753 81.1326 206.809 83.516 207.021C83.8338 207.049 84.1516 207.063 84.4659 207.063C89.8366 207.063 94.2539 203.024 94.7447 197.671L96.3514 180.044C96.8669 174.373 92.672 169.338 86.9976 168.815ZM87.7074 197.028C87.552 198.723 86.1608 200.001 84.4624 200.001L84.1446 199.987C83.1877 199.902 82.5238 199.429 82.146 199.048C81.4575 198.359 81.1114 197.406 81.1997 196.439L82.8028 178.812C82.9546 177.12 84.3388 175.849 86.3197 175.849C86.3303 175.849 86.3409 175.849 86.3515 175.849C88.1488 176.015 89.48 177.608 89.314 179.401L87.7074 197.028ZM143.371 164.832L125.737 163.229C122.622 162.954 119.653 164.041 117.499 166.213C115.793 167.915 114.73 170.178 114.511 172.583C114.261 175.334 115.098 178.017 116.863 180.139C118.632 182.261 121.122 183.564 123.869 183.812L141.489 185.411C141.81 185.439 142.131 185.453 142.445 185.453C147.809 185.453 152.223 181.418 152.721 176.057C153.229 170.376 149.034 165.344 143.371 164.832ZM142.449 178.388L124.511 176.774C123.639 176.697 122.848 176.283 122.29 175.613C121.732 174.945 121.471 174.094 121.549 173.218C121.634 172.247 122.107 171.591 122.499 171.202C123.099 170.598 123.897 170.263 125.034 170.263C125.059 170.263 125.083 170.263 125.105 170.263L142.739 171.866C144.529 172.029 145.856 173.625 145.694 175.411C145.535 177.106 144.14 178.388 142.449 178.388ZM107.202 133.145L124.822 134.744C125.143 134.773 125.465 134.787 125.779 134.787C131.143 134.787 135.556 130.751 136.054 125.391C136.563 119.716 132.364 114.684 126.704 114.169L109.07 112.566C105.945 112.287 102.986 113.378 100.832 115.55C99.1267 117.252 98.0639 119.515 97.845 121.92C97.5943 124.67 98.4311 127.354 100.197 129.476C101.966 131.595 104.455 132.898 107.202 133.145ZM105.829 120.539C106.429 119.935 107.227 119.6 108.364 119.6C108.389 119.6 108.413 119.6 108.435 119.6L126.069 121.203C127.859 121.365 129.186 122.961 129.024 124.748C128.869 126.443 127.477 127.725 125.783 127.725L107.845 126.111C106.973 126.033 106.182 125.62 105.624 124.949C105.066 124.282 104.805 123.431 104.882 122.555C104.967 121.584 105.437 120.927 105.829 120.539ZM38.7849 145.588L25.1869 156.923C22.8211 158.893 21.4652 161.785 21.4652 164.86C21.4652 167.258 22.3126 169.603 23.8627 171.474C25.8366 173.836 28.7285 175.192 31.804 175.192C34.2157 175.192 36.5603 174.341 38.4106 172.798L52.0121 161.467C56.3871 157.823 56.9803 151.294 53.3363 146.909C49.8194 142.696 43.0115 142.071 38.7849 145.588ZM47.496 156.04L33.8979 167.371C33.1458 168 32.3478 168.13 31.8076 168.13C30.833 168.13 29.9114 167.699 29.297 166.961C28.7956 166.358 28.5308 165.63 28.5308 164.86C28.5308 163.889 28.958 162.975 29.7101 162.35L43.3082 151.015C44.0638 150.387 44.8618 150.256 45.402 150.256C46.3731 150.256 47.2912 150.683 47.9126 151.428C49.0637 152.82 48.8801 154.889 47.496 156.04ZM195.362 174.313L181.767 185.648C179.401 187.614 178.042 190.506 178.042 193.585C178.042 195.994 178.893 198.338 180.443 200.199C182.413 202.561 185.305 203.917 188.381 203.917C190.789 203.917 193.137 203.07 194.994 201.523L208.589 190.192C212.964 186.548 213.561 180.019 209.913 175.641C206.403 171.421 199.592 170.793 195.362 174.313ZM204.069 184.765L190.475 196.096C189.719 196.725 188.921 196.855 188.381 196.855C187.41 196.855 186.492 196.424 185.867 195.679C185.365 195.079 185.104 194.355 185.104 193.585C185.104 192.614 185.531 191.7 186.287 191.075L199.881 179.74C200.637 179.112 201.435 178.981 201.975 178.981C202.946 178.981 203.864 179.408 204.486 180.157C205.64 181.548 205.457 183.614 204.069 184.765ZM152.128 91.874C154.539 91.874 156.887 91.0266 158.738 89.48L172.343 78.1489C176.711 74.5048 177.304 67.976 173.663 63.5939C170.146 59.3814 163.335 58.7635 159.112 62.2698L145.51 73.608C143.148 75.5818 141.792 78.4737 141.792 81.5457C141.792 83.9433 142.64 86.2879 144.19 88.1594C146.16 90.5216 149.056 91.874 152.128 91.874ZM150.034 79.0316L163.632 67.697C164.384 67.0685 165.182 66.9378 165.722 66.9378C166.697 66.9378 167.615 67.3686 168.236 68.1137C169.391 69.5014 169.2 71.5705 167.823 72.7217L154.221 84.0528C153.466 84.6813 152.668 84.8119 152.128 84.8119C151.157 84.8119 150.235 84.3847 149.621 83.6467C149.119 83.0429 148.854 82.3155 148.854 81.5457C148.854 80.5712 149.285 79.6566 150.034 79.0316ZM320.335 154.313C323.231 150.567 323.266 145.179 320.113 141.386C317.203 137.887 312.041 136.898 307.945 138.66C303.662 135.299 298.694 132.767 293.203 131.227C292.702 111.238 283.959 93.3005 270.23 80.6312C270.905 75.9949 268.369 71.3128 263.832 69.5225L247.367 63.0184C244.524 61.892 241.254 62.1144 238.62 63.5551C238.567 63.5834 238.528 63.6257 238.476 63.6504C233.663 62.4993 228.673 61.8249 223.539 61.7084C219.927 52.0722 211.392 44.8547 200.997 43.1069C200.506 42.8526 199.977 42.6726 199.387 42.6726C198.257 42.6726 197.141 42.5984 196.036 42.5031C195.305 37.948 191.601 34.2687 186.809 33.8344L172.922 32.5738C164.871 25.4023 159.772 15.0563 159.772 3.53104C159.772 1.57837 158.194 0 156.241 0C112.086 0 75.9808 35.0385 74.2118 78.7703C68.9117 79.2576 63.9329 80.8431 59.5015 83.3112C56.832 83.0747 54.0813 83.795 51.9804 85.5499C49.8547 87.319 48.5482 89.8083 48.301 92.5555C48.2904 92.6508 48.3081 92.7462 48.3046 92.838C43.5483 98.8337 40.614 106.302 40.2679 114.444C16.7865 120.776 0 142.403 0 166.965C0 190.552 14.7633 212.699 35.3421 220.513L68.6751 350.448C68.774 350.84 68.9399 351.204 69.1589 351.529C69.2436 351.659 69.3707 351.751 69.4731 351.871C69.625 352.044 69.7627 352.231 69.9427 352.373C70.0911 352.482 70.2641 352.546 70.4265 352.634C70.603 352.726 70.7619 352.849 70.9491 352.913C71.3057 353.033 71.6941 353.104 72.0896 353.104H252.9C253.295 353.104 253.687 353.033 254.047 352.909C254.238 352.842 254.397 352.722 254.57 352.63C254.732 352.542 254.905 352.479 255.054 352.369C255.234 352.228 255.372 352.041 255.523 351.868C255.626 351.751 255.749 351.656 255.838 351.525C256.057 351.2 256.219 350.84 256.321 350.445L289.76 220.104C310.321 215.199 325 196.848 325 175.45C325 167.788 323.323 160.62 320.335 154.313ZM307.384 147.739L310.085 145.486C310.837 144.857 311.635 144.727 312.175 144.727C313.146 144.727 314.064 145.154 314.686 145.902C315.84 147.294 315.653 149.359 314.273 150.51L311.437 152.873L300.671 161.841C299.919 162.47 299.121 162.601 298.581 162.601C297.606 162.601 296.688 162.17 296.067 161.428C296.067 161.428 296.067 161.425 296.063 161.425L296.06 161.421C295.569 160.828 295.304 160.101 295.304 159.331C295.304 158.36 295.731 157.445 296.48 156.82L300.876 153.159L307.384 147.739C307.38 147.735 307.38 147.735 307.384 147.739ZM240.524 71.4258C240.887 70.5077 241.516 70.0169 241.985 69.7591C242.483 69.4908 243.023 69.3495 243.567 69.3495C243.973 69.3495 244.379 69.4272 244.771 69.579L261.237 76.0832C262.907 76.7471 263.729 78.6538 263.069 80.3346C262.571 81.5846 261.378 82.3967 260.032 82.3967C259.658 82.3967 259.284 82.319 258.927 82.1813C258.895 82.1707 258.86 82.1778 258.832 82.1637L249.51 78.4773L242.374 75.6595C241.964 75.4971 241.6 75.264 241.293 74.9674C240.99 74.6743 240.742 74.3177 240.569 73.9187C240.216 73.1207 240.202 72.2344 240.524 71.4258ZM164.984 42.2206C164.984 42.2171 164.984 42.2171 164.984 42.2135C165.069 41.2496 165.542 40.5857 165.923 40.2079L165.927 40.2044C166.541 39.59 167.36 39.251 168.233 39.251L168.441 39.2686C168.452 39.2686 168.459 39.2651 168.469 39.2651C168.494 39.2651 168.519 39.2651 168.54 39.2651L170.03 39.3993C170.037 39.4064 170.044 39.4099 170.051 39.4134L186.17 40.8682C187.964 41.0306 189.288 42.6231 189.126 44.4204C188.97 46.1118 187.576 47.39 185.884 47.39L185.577 47.3759L168.317 45.8081L167.95 45.7728C167.078 45.6951 166.287 45.282 165.729 44.6146C165.171 43.9473 164.903 43.0963 164.984 42.2206ZM152.901 7.23156C153.699 17.1149 157.625 26.1261 163.731 33.2835C162.714 33.7814 161.746 34.3923 160.923 35.2185C159.214 36.9311 158.159 39.198 157.947 41.585C157.696 44.3357 158.533 47.0193 160.298 49.1379C162.067 51.26 164.557 52.563 167.304 52.8102L184.927 54.4133C185.245 54.4415 185.563 54.4556 185.877 54.4556C189.599 54.4556 192.833 52.4853 194.645 49.5016C194.786 49.5157 194.931 49.5122 195.072 49.5228C195.418 49.6322 195.764 49.7417 196.145 49.7417C208.395 49.7417 218.356 59.7027 218.356 71.9519C218.356 86.2985 191.435 95.5675 149.769 95.5675C105.391 95.5675 81.182 86.6904 81.182 82.1319C81.1856 41.8604 113.067 8.99708 152.901 7.23156ZM56.4966 90.9771C57.2522 90.3486 58.0502 90.2179 58.5905 90.2179C59.3143 90.2179 59.9711 90.5216 60.5361 90.9524C60.7267 91.0972 60.9457 91.1996 61.1046 91.3903L61.1081 91.3938L72.4357 104.992C72.9936 105.663 73.2584 106.514 73.1807 107.382C73.103 108.251 72.6899 109.038 72.019 109.596C72.0155 109.596 72.0155 109.6 72.0155 109.6C72.0084 109.607 71.9943 109.607 71.9872 109.614C71.6624 109.879 71.2951 110.059 70.8997 110.182C70.8855 110.186 70.8714 110.186 70.8538 110.189C70.5536 110.281 70.2429 110.355 69.9216 110.355C69.8333 110.355 69.7556 110.306 69.6709 110.299C69.5791 110.292 69.4908 110.25 69.399 110.235C69.06 110.179 68.7351 110.122 68.435 109.967C68.0466 109.776 67.6935 109.519 67.411 109.18L67.4075 109.176C67.4075 109.173 67.4039 109.173 67.4039 109.173L59.8546 100.108L56.0764 95.5745C55.9351 95.405 55.868 95.2002 55.7656 95.0096C55.462 94.4517 55.2713 93.8408 55.3313 93.1946C55.409 92.3224 55.8257 91.535 56.4966 90.9771ZM47.2453 116.055C47.2453 110.536 48.7459 105.373 51.3271 100.906L61.9909 113.703C63.9647 116.062 66.8566 117.414 69.9251 117.414C72.3403 117.414 74.6885 116.563 76.5352 115.02C78.6609 113.254 79.9638 110.769 80.2145 108.018C80.4617 105.271 79.6284 102.591 77.8629 100.472L67.1179 87.5767C69.632 86.641 72.2944 86.0231 75.0698 85.7865C81.9306 98.989 125.705 102.622 149.772 102.622C197.141 102.622 225.421 91.1537 225.421 71.9448C225.421 70.8997 225.361 69.8721 225.255 68.8552C228.112 69.007 230.923 69.3072 233.673 69.8156C233.02 72.1002 233.126 74.5154 234.086 76.7294C235.185 79.2611 237.208 81.2173 239.775 82.2272L256.226 88.7314C257.448 89.2151 258.726 89.4588 260.029 89.4588C262.557 89.4588 264.898 88.5372 266.724 86.9729C278.694 98.6324 286.169 114.872 286.219 132.852C285.703 137.827 276.198 145.408 250.954 150.542C226.848 155.443 196.004 156.746 164.087 154.197C93.8938 148.593 46.1648 129.744 47.2311 116.333C47.2347 116.284 47.2099 116.242 47.2135 116.192C47.217 116.143 47.2453 116.104 47.2453 116.055ZM74.8297 346.041L42.7008 220.796L59.8475 218.274L85.8536 346.041H74.8297ZM93.0569 346.041L67.0967 218.49L84.8826 220.986L104.134 346.041H93.0569ZM111.281 346.041L92.0152 220.866L109.3 218.331L122.421 346.041H111.281ZM129.525 346.041L116.411 218.433L134.285 220.99L140.701 346.041H129.525ZM158.964 346.041H147.774L141.354 220.884L158.967 218.37L158.964 346.041ZM177.219 346.041H166.022L166.029 218.359L183.646 220.824L177.219 346.041ZM184.292 346.041L190.704 221.053L208.702 218.447L195.471 346.041H184.292ZM202.575 346.041L215.82 218.32L232.985 220.796L213.709 346.041H202.575ZM220.856 346.041L240.093 221.057L257.575 218.515L231.925 346.041H220.856ZM250.163 346.041H239.132L264.849 218.19L282.426 220.27L250.163 346.041ZM286.406 213.631L262.441 210.792C262.133 210.753 261.823 210.76 261.519 210.806L261.332 210.835C261.328 210.835 261.321 210.835 261.318 210.835L237.462 214.302L213.19 210.803C213.162 210.799 213.133 210.806 213.109 210.803C213.087 210.799 213.073 210.789 213.052 210.785C212.992 210.782 212.946 210.806 212.886 210.803C212.653 210.792 212.413 210.771 212.18 210.806L188.024 214.306L162.986 210.803C162.88 210.785 162.77 210.806 162.668 210.803C162.604 210.799 162.558 210.767 162.495 210.767C162.431 210.767 162.385 210.799 162.322 210.803C162.212 210.81 162.103 210.789 161.993 210.803L137.438 214.306L112.933 210.803C112.711 210.771 112.485 210.792 112.262 210.806C112.195 210.806 112.139 210.778 112.072 210.785C112.047 210.789 112.029 210.803 112.004 210.806C111.976 210.81 111.944 210.803 111.92 210.806L88.0887 214.306L63.1349 210.803C62.803 210.753 62.4711 210.757 62.1321 210.806L38.7001 214.246C20.3282 207.763 7.05854 188.031 7.05854 166.965C7.05854 145.92 21.2109 127.336 41.1436 121.506C49.2509 141.655 107.569 156.767 163.529 161.238C174.37 162.099 185.1 162.526 195.51 162.526C216.339 162.526 235.866 160.814 252.363 157.456C268.097 154.26 286.614 148.406 291.861 138.18C295.544 139.282 298.941 140.924 301.971 143.049L291.964 151.39C289.598 153.36 288.242 156.252 288.242 159.327C288.242 161.732 289.089 164.077 290.639 165.941C292.61 168.303 295.502 169.659 298.581 169.659C300.989 169.659 303.337 168.808 305.187 167.265L314.816 159.246C316.84 164.158 317.941 169.638 317.941 175.45C317.938 194.15 304.704 210.128 286.406 213.631Z" fill="#6A2C70"/>
</svg>
