<svg width="71" height="71" viewBox="0 0 71 71" fill="none" xmlns="http://www.w3.org/2000/svg">
<path d="M53.2498 23.6667C53.2498 13.8747 45.2919 5.91675 35.4998 5.91675C25.7078 5.91675 17.7498 13.8747 17.7498 23.6667C17.7498 36.9792 35.4998 56.2084 35.4998 56.2084C35.4998 56.2084 53.2498 36.9792 53.2498 23.6667ZM29.5832 23.6667C29.5832 20.4126 32.2457 17.7501 35.4998 17.7501C38.754 17.7501 41.4165 20.4126 41.4165 23.6667C41.4165 25.2359 40.7931 26.7409 39.6836 27.8505C38.574 28.9601 37.069 29.5834 35.4998 29.5834C33.9306 29.5834 32.4257 28.9601 31.3161 27.8505C30.2065 26.7409 29.5832 25.2359 29.5832 23.6667ZM14.7915 59.1667V65.0834H56.2082V59.1667H14.7915Z" fill="#814F86"/>
</svg>
